<svg width="800" height="748" viewBox="0 0 800 748" fill="none" xmlns="http://www.w3.org/2000/svg">
<path d="M646.215 747.85H153.79C100.291 747.85 56.7659 704.325 56.7659 650.826V229.244C56.7659 217.006 66.6878 207.081 78.9285 207.081C91.1692 207.081 101.091 217.006 101.091 229.244V650.827C101.091 679.885 124.732 703.526 153.79 703.526H646.213C675.271 703.526 698.909 679.885 698.909 650.827V435.359C698.909 423.121 708.834 413.196 721.071 413.196C733.309 413.196 743.234 423.121 743.234 435.359V650.826C743.235 704.325 699.712 747.85 646.215 747.85Z" fill="#F8FAEC"/>
<path d="M400.094 745.983C394.771 745.983 389.579 744.472 385.079 741.611C367.701 730.583 279.467 673.034 250.226 623.605C236.279 600.029 230.059 577.257 230.059 549.764C230.059 479.369 282.933 442.54 335.163 442.54C366.179 442.54 386.852 453.981 400.074 466.164C413.273 453.979 433.913 442.54 464.903 442.54C517.103 442.54 569.944 479.37 569.944 549.764C569.944 577.222 563.711 599.996 549.742 623.609C520.106 673.707 425.812 734.783 415.157 741.583C410.641 744.465 405.438 745.983 400.094 745.983ZM335.163 486.866C307.125 486.866 274.384 503.339 274.384 549.766C274.384 569.386 278.438 584.243 288.375 601.04C306.747 632.096 365.149 675.451 400.069 698.512C434.982 675.339 493.359 631.859 511.592 601.04C521.555 584.202 525.617 569.349 525.617 549.766C525.617 503.339 492.909 486.866 464.901 486.866C439.195 486.866 427.198 499.219 421.662 509.584C417.402 517.556 409.138 522.505 400.093 522.505C391.063 522.505 382.807 517.567 378.54 509.622C372.976 499.236 360.933 486.866 335.163 486.866Z" fill="#F8FAEC"/>
<path d="M646.268 346.319C597.286 346.319 551.742 322.608 523.134 284.521C494.531 322.607 448.985 346.319 400.001 346.319C351.019 346.319 305.475 322.608 276.867 284.521C248.262 322.607 202.715 346.319 153.734 346.319C68.966 346.319 0 277.353 0 192.581C0 177.268 5.60003 148.696 54.03 77.6632C79.338 40.5427 104.24 9.6753 105.285 8.37842C109.491 3.17214 115.826 0.148682 122.518 0.148682H677.477C684.171 0.148682 690.504 3.17214 694.71 8.37842C695.759 9.6753 720.659 40.5427 745.968 77.6632C794.398 148.696 799.998 177.267 799.998 192.581C800.005 277.353 731.039 346.319 646.268 346.319ZM523.134 216.819C532.358 216.819 540.619 222.53 543.872 231.163C559.844 273.528 600.994 301.994 646.265 301.994C706.596 301.994 755.676 252.913 755.676 192.583C755.676 170.086 710.742 100.148 666.815 44.4786H133.187C89.2599 100.146 44.3253 170.086 44.3253 192.583C44.3253 252.914 93.4068 301.994 153.737 301.994C199.009 301.994 240.159 273.528 256.133 231.163C259.386 222.533 267.647 216.819 276.87 216.819C286.094 216.819 294.355 222.533 297.608 231.163C313.583 273.528 354.73 301.994 400.004 301.994C445.278 301.994 486.425 273.528 502.397 231.164C505.65 222.534 513.911 216.819 523.134 216.819Z" fill="#F8FAEC"/>
<path d="M626.247 158.921H48.6267C36.386 158.921 26.4641 148.996 26.4641 136.759C26.4641 124.521 36.386 114.596 48.6267 114.596H626.247C638.485 114.596 648.41 124.521 648.41 136.759C648.41 148.996 638.488 158.921 626.247 158.921Z" fill="#F8FAEC"/>
</svg>
