<svg width="67" height="67" viewBox="0 0 67 67" fill="none" xmlns="http://www.w3.org/2000/svg">
<path d="M67 33.5C67 52.0015 52.0015 67 33.5 67C14.9985 67 0 52.0015 0 33.5C0 14.9985 14.9985 0 33.5 0C52.0015 0 67 14.9985 67 33.5ZM22.6147 33.5C22.6147 39.5118 27.4882 44.3853 33.5 44.3853C39.5118 44.3853 44.3853 39.5118 44.3853 33.5C44.3853 27.4882 39.5118 22.6147 33.5 22.6147C27.4882 22.6147 22.6147 27.4882 22.6147 33.5Z" fill="#50A45A"/>
<path fill-rule="evenodd" clip-rule="evenodd" d="M1.28129 24.7522C0.506781 27.6035 0.115026 30.5452 0.116336 33.4998C0.116336 48.0478 9.47076 60.4503 22.4817 65.0197C22.4678 65.0023 22.4678 64.9832 22.4678 64.9658C21.8719 62.6064 21.4391 60.2088 21.1725 57.79C21.138 57.49 21.1093 57.1877 21.0805 56.8854C20.912 55.1133 20.7433 53.3382 19.4198 51.9896C18.8411 51.3922 18.163 50.9548 17.4939 50.5231C16.4102 49.8239 15.3501 49.1399 14.7739 47.8166C14.1736 46.4371 14.2548 44.9229 14.3358 43.4134C14.4279 41.6961 14.5196 39.9848 13.6072 38.4848C12.6919 36.9803 11.228 36.4144 9.7676 35.8499C8.14604 35.223 6.52881 34.5978 5.67161 32.6913C5.01906 31.2323 4.20764 29.8926 3.39965 28.5585C2.64677 27.3154 1.89688 26.0773 1.28129 24.7522ZM27.9362 66.4176C29.7747 66.7272 31.6358 66.8831 33.5001 66.8836C38.5809 66.8834 43.5944 65.722 48.1577 63.4881C52.7209 61.2542 56.7133 58.0069 59.8299 53.9943C59.3875 52.2821 59.1115 50.5312 59.0057 48.7659C58.982 48.4453 58.9649 48.1288 58.9479 47.8152C58.885 46.6543 58.8243 45.5325 58.4424 44.3826C57.919 42.7986 57.5626 41.618 57.5973 39.9123C57.6724 36.1319 55.568 36.5016 53.0564 36.9429C52.367 37.064 51.6469 37.1905 50.9327 37.2381C48.3897 37.4032 45.9868 36.4971 44.317 34.7259C43.9112 38.3462 41.7297 41.4296 38.6637 43.0848C38.792 43.3678 38.8954 43.6659 38.9702 43.9809C39.5996 46.6221 39.1423 49.6649 37.6157 51.9252C36.7022 53.2833 35.4551 54.3197 34.2078 55.3563C33.3279 56.0875 32.4479 56.8188 31.6849 57.6631C29.8175 59.7322 28.4334 62.4359 28.0109 65.2005C27.9723 65.4525 27.9596 65.7952 27.9456 66.1715C27.9426 66.2522 27.9395 66.3344 27.9362 66.4176ZM42.663 27.6213C40.7268 24.6096 37.3464 22.6146 33.5 22.6146C27.5148 22.6146 22.6579 27.445 22.615 33.42C22.3532 33.4061 22.0863 33.3717 21.8071 33.2998C21.523 33.2261 21.258 33.1274 20.9984 33.0307C20.432 32.8197 19.8908 32.6182 19.2303 32.7052C18.4396 32.8091 17.7771 33.2386 17.1188 33.6654C16.2789 34.21 15.4458 34.7501 14.3618 34.6039C12.5275 34.3587 10.6375 32.2114 10.2202 30.464C9.68462 28.2175 11.4616 27.489 13.3655 27.289C14.1601 27.2056 15.0521 27.1152 15.8154 27.4073C16.3736 27.6139 16.7681 28.0093 17.1632 28.4053C17.4796 28.7223 17.7962 29.0396 18.1975 29.2608C19.8893 30.1892 20.2318 28.7061 19.9727 27.2038C19.9306 26.9592 19.8877 26.7303 19.8472 26.5147C19.5158 24.7471 19.3511 23.8691 21.1394 22.4884C21.223 22.4242 21.3059 22.3611 21.3878 22.2987C22.6683 21.3238 23.7063 20.5335 23.4972 18.7309C23.4537 18.3601 23.3576 18.0561 23.2688 17.7751C23.0879 17.2026 22.9372 16.7256 23.3233 15.9733C23.7513 15.136 24.9119 14.379 25.6929 13.8696L25.7384 13.8399C26.3357 13.4503 27.3374 13.1847 28.3808 12.908C30.8577 12.2513 33.5698 11.5322 31.6675 8.94359C30.8729 7.86383 29.4071 5.93383 28.0162 5.66954C26.8339 5.44609 26.0986 6.27172 25.368 7.09202C25.0242 7.47812 24.6814 7.86303 24.2935 8.13681C23.0416 9.02183 20.6039 10.0268 19.3503 8.65843C18.2284 7.43364 19.0937 6.75659 19.9816 6.06184C20.4285 5.71212 20.8812 5.35791 21.089 4.9271C21.3759 4.32723 21.089 3.49438 20.6056 2.7102C21.2327 2.44592 21.8703 2.20075 22.5183 1.97472C22.9243 2.27465 23.4061 2.4553 23.9092 2.49634C24.3006 2.52208 24.6845 2.46791 25.0602 2.41489C25.8014 2.31031 26.5112 2.21016 27.185 2.73628C27.4802 2.96402 27.7537 3.20751 28.0236 3.44774C28.784 4.12458 29.5154 4.77559 30.619 4.97578C32.0657 5.23833 33.5975 4.39504 33.9557 2.91364C34.171 2.02142 33.9597 1.07972 33.7529 0.157836L33.747 0.131653C40.25 0.16907 46.5985 2.11657 52.0038 5.73213C51.6561 5.59999 51.2405 5.61564 50.7276 5.85384C49.6722 6.34417 48.1768 7.59258 48.0534 8.83057C47.9126 10.2355 49.9851 10.4337 50.9693 10.4337C52.4472 10.4337 53.9442 9.77296 53.4678 8.06552C53.2609 7.32482 52.9792 6.55456 52.5254 6.08858C53.6164 6.84546 54.6615 7.66643 55.6552 8.54715C55.6499 8.55238 55.6447 8.55741 55.6395 8.56244C55.6291 8.57248 55.6186 8.58252 55.6082 8.5941C55.315 8.8995 55.008 9.18628 54.7031 9.471C53.9666 10.1589 53.2429 10.8348 52.7584 11.7325C52.2751 12.6262 51.7308 13.0505 50.7519 13.2817C50.636 13.309 50.5165 13.3326 50.3959 13.3565C49.9557 13.4434 49.5001 13.5334 49.1453 13.8173C47.8865 14.8084 48.6028 17.1904 49.7956 17.905C51.3031 18.8075 53.5391 18.3832 54.6763 17.0948C54.9223 16.8156 55.1403 16.4794 55.3608 16.1393C55.9369 15.2511 56.5305 14.3359 57.686 14.3372C58.3895 14.3357 59.0653 14.6111 59.5673 15.1039C60.0682 15.6233 60.1144 16.1167 60.1689 16.6977C60.1862 16.8831 60.2044 17.0774 60.2385 17.2843C60.4871 18.804 61.8277 17.9798 62.6432 17.213C63.2376 18.2709 63.7739 19.3604 64.2497 20.4766C64.1857 20.5689 64.1225 20.6618 64.0598 20.7541C63.2434 21.9548 62.4856 23.0694 60.4819 21.6712C60.04 21.3625 59.6563 21.0062 59.2778 20.6548C58.5496 19.9787 57.8405 19.3203 56.7732 19.0526C55.5484 18.7521 54.2977 18.9814 53.0772 19.2052C52.8855 19.2404 52.6945 19.2754 52.5046 19.3082C52.2748 19.3481 52.0388 19.3848 51.7996 19.4221C50.3828 19.6424 48.8528 19.8804 47.8204 20.9113C47.2616 21.4677 46.8288 22.1142 46.3931 22.765C45.9192 23.473 45.4418 24.1861 44.795 24.7939C43.8402 25.6927 43.1048 26.6242 42.663 27.6213Z" fill="#96D2E5"/>
</svg>
