<svg width="73" height="17" viewBox="0 0 73 17" fill="none" xmlns="http://www.w3.org/2000/svg">
<path d="M7.85998 1.07998C7.96664 0.879978 8.14664 0.739979 8.39998 0.659979C8.65331 0.579978 8.98664 0.539978 9.39998 0.539978C9.82664 0.539978 10.1666 0.579978 10.42 0.659979C10.6733 0.739979 10.8466 0.879978 10.94 1.07998C11.0466 1.27998 11.1066 1.45998 11.12 1.61998C11.1466 1.76665 11.16 1.99331 11.16 2.29998V14.24C11.16 14.5466 11.1466 14.78 11.12 14.94C11.1066 15.0866 11.0466 15.2533 10.94 15.44C10.74 15.8 10.1733 15.98 9.23998 15.98C8.31998 15.98 7.80664 15.6533 7.69998 15C7.13998 15.64 6.35998 15.96 5.35998 15.96C4.15998 15.96 3.06664 15.44 2.07998 14.4C1.09331 13.3466 0.599976 12.1266 0.599976 10.74C0.599976 9.33998 1.09331 8.11331 2.07998 7.05998C3.07998 6.00665 4.17331 5.47998 5.35998 5.47998C6.34664 5.47998 7.11331 5.81331 7.65998 6.47998V2.27998C7.65998 1.97331 7.66664 1.74665 7.67998 1.59998C7.70664 1.43998 7.76664 1.26664 7.85998 1.07998ZM4.61998 11.94C4.96664 12.3 5.38664 12.48 5.87998 12.48C6.37331 12.48 6.77998 12.3 7.09998 11.94C7.43331 11.58 7.59998 11.1866 7.59998 10.76C7.59998 10.32 7.43998 9.91331 7.11998 9.53998C6.81331 9.16665 6.39331 8.97998 5.85998 8.97998C5.32664 8.97998 4.89998 9.16665 4.57998 9.53998C4.25998 9.89998 4.09998 10.3 4.09998 10.74C4.09998 11.18 4.27331 11.58 4.61998 11.94Z" fill="#50A45A"/>
<path d="M29.7303 5.45998C31.0636 5.45998 32.1703 5.97331 33.0503 6.99998C33.9436 8.01331 34.3903 9.25331 34.3903 10.72V14.24C34.3903 14.5466 34.377 14.78 34.3503 14.94C34.337 15.0866 34.2836 15.2533 34.1903 15.44C34.0036 15.8 33.4836 15.98 32.6303 15.98C31.6836 15.98 31.137 15.7333 30.9903 15.24C30.9103 15.0133 30.8703 14.6733 30.8703 14.22V10.7C30.8703 10.1533 30.7103 9.72665 30.3903 9.41998C30.0836 9.11331 29.6636 8.95998 29.1303 8.95998C28.6103 8.95998 28.1836 9.11998 27.8503 9.43998C27.5303 9.75998 27.3703 10.18 27.3703 10.7V14.24C27.3703 14.5466 27.357 14.78 27.3303 14.94C27.317 15.0866 27.257 15.2533 27.1503 15.44C26.977 15.8 26.4636 15.98 25.6103 15.98C24.7703 15.98 24.257 15.8 24.0703 15.44C23.977 15.24 23.917 15.0666 23.8903 14.92C23.877 14.76 23.8703 14.5266 23.8703 14.22V7.13998C23.8703 6.84665 23.877 6.62665 23.8903 6.47998C23.917 6.31998 23.9836 6.14665 24.0903 5.95998C24.277 5.62665 24.7903 5.45998 25.6303 5.45998C26.4436 5.45998 26.9436 5.61331 27.1303 5.91998C27.2636 6.14665 27.3303 6.41998 27.3303 6.73998C27.3836 6.64665 27.5036 6.51331 27.6903 6.33998C27.877 6.16665 28.057 6.02665 28.2303 5.91998C28.6836 5.61331 29.1836 5.45998 29.7303 5.45998Z" fill="#50A45A"/>
<path d="M42.8392 6.57998C42.9192 5.83331 43.4459 5.45998 44.4192 5.45998C44.9392 5.45998 45.3259 5.49998 45.5792 5.57998C45.8325 5.65998 46.0059 5.79998 46.0992 5.99998C46.2059 6.19998 46.2659 6.37998 46.2792 6.53998C46.3059 6.68665 46.3192 6.91331 46.3192 7.21998V14.22C46.3192 14.5266 46.3059 14.76 46.2792 14.92C46.2659 15.0666 46.2125 15.24 46.1192 15.44C45.9325 15.7866 45.4725 15.96 44.7392 15.96C44.0192 15.96 43.5325 15.8733 43.2792 15.7C43.0392 15.5133 42.8992 15.2466 42.8592 14.9C42.3659 15.6066 41.5392 15.96 40.3792 15.96C39.2325 15.96 38.1659 15.4333 37.1792 14.38C36.1925 13.3266 35.6992 12.1066 35.6992 10.72C35.6992 9.31998 36.1925 8.09998 37.1792 7.05998C38.1792 6.00665 39.2725 5.47998 40.4592 5.47998C40.9125 5.47998 41.3259 5.55998 41.6992 5.71998C42.0725 5.87998 42.3325 6.03331 42.4792 6.17998C42.6259 6.31331 42.7459 6.44665 42.8392 6.57998ZM39.1992 10.74C39.1992 11.18 39.3725 11.58 39.7192 11.94C40.0659 12.2866 40.4859 12.46 40.9792 12.46C41.4725 12.46 41.8792 12.28 42.1992 11.92C42.5325 11.56 42.6992 11.1666 42.6992 10.74C42.6992 10.3 42.5392 9.89331 42.2192 9.51998C41.9125 9.14665 41.4925 8.95998 40.9592 8.95998C40.4392 8.95998 40.0125 9.14665 39.6792 9.51998C39.3592 9.89331 39.1992 10.3 39.1992 10.74Z" fill="#50A45A"/>
<path d="M54.0333 8.99998L52.7333 8.91998V11.68C52.7333 12.04 52.7866 12.3 52.8933 12.46C53.0133 12.62 53.2266 12.7 53.5333 12.7C53.8533 12.7 54.0933 12.7133 54.2533 12.74C54.4266 12.7533 54.6066 12.8133 54.7933 12.92C55.0999 13.0933 55.2533 13.54 55.2533 14.26C55.2533 15.1 55.0666 15.6133 54.6933 15.8C54.4933 15.8933 54.3133 15.9533 54.1533 15.98C54.0066 15.9933 53.7866 16 53.4933 16C52.1066 16 51.0533 15.6866 50.3333 15.06C49.6133 14.4333 49.2533 13.3733 49.2533 11.88V8.91998C48.9999 8.95998 48.7266 8.97998 48.4333 8.97998C48.1399 8.97998 47.8933 8.86665 47.6933 8.63998C47.5066 8.41331 47.4133 8.02665 47.4133 7.47998C47.4133 6.93331 47.4466 6.53998 47.5133 6.29998C47.5799 6.04665 47.6733 5.86665 47.7933 5.75998C48.0066 5.58665 48.2733 5.49998 48.5933 5.49998L49.2533 5.57998V3.51998C49.2533 3.21331 49.2599 2.98665 49.2733 2.83998C49.2999 2.69331 49.3666 2.53331 49.4733 2.35998C49.6466 2.02665 50.1599 1.85998 51.0133 1.85998C51.9199 1.85998 52.4599 2.10665 52.6333 2.59998C52.6999 2.81331 52.7333 3.15331 52.7333 3.61998V5.57998C53.3199 5.52665 53.7599 5.49998 54.0533 5.49998C54.3599 5.49998 54.5866 5.51331 54.7333 5.53998C54.8933 5.55331 55.0733 5.61331 55.2733 5.71998C55.6199 5.89331 55.7933 6.40665 55.7933 7.25998C55.7933 8.09998 55.6133 8.61331 55.2533 8.79998C55.0533 8.89331 54.8733 8.95331 54.7133 8.97998C54.5666 8.99331 54.3399 8.99998 54.0333 8.99998Z" fill="#50A45A"/>
<path d="M56.8976 7.21998C56.8976 6.91331 56.9043 6.68665 56.9176 6.53998C56.9443 6.37998 57.0043 6.19998 57.0976 5.99998C57.2843 5.65331 57.8043 5.47998 58.6576 5.47998C59.2976 5.47998 59.751 5.59331 60.0176 5.81998C60.2443 6.00665 60.3643 6.29331 60.3776 6.67998C60.391 6.81331 60.3976 7.00665 60.3976 7.25998V14.26C60.3976 14.5666 60.3843 14.8 60.3576 14.96C60.3443 15.1066 60.2843 15.28 60.1776 15.48C60.0043 15.8266 59.491 16 58.6376 16C57.7976 16 57.2843 15.82 57.0976 15.46C57.0043 15.26 56.9443 15.0866 56.9176 14.94C56.9043 14.7933 56.8976 14.56 56.8976 14.24V7.21998ZM60.1776 3.51998C60.0843 3.70665 59.911 3.83998 59.6576 3.91998C59.4043 3.99998 59.0643 4.03998 58.6376 4.03998C58.2243 4.03998 57.891 3.99998 57.6376 3.91998C57.3843 3.83998 57.2043 3.69998 57.0976 3.49998C57.0043 3.29998 56.9443 3.12665 56.9176 2.97998C56.9043 2.81998 56.8976 2.58664 56.8976 2.27998C56.8976 1.97331 56.9043 1.74665 56.9176 1.59998C56.9443 1.43998 57.0043 1.26664 57.0976 1.07998C57.2843 0.719978 57.8043 0.539978 58.6576 0.539978C59.4976 0.539978 60.0043 0.719978 60.1776 1.07998C60.2843 1.27998 60.3443 1.45998 60.3576 1.61998C60.3843 1.76665 60.3976 1.99331 60.3976 2.29998C60.3976 2.60664 60.3843 2.83998 60.3576 2.99998C60.3443 3.14664 60.2843 3.31998 60.1776 3.51998Z" fill="#50A45A"/>
<path d="M61.6953 10.74C61.6953 9.13998 62.2553 7.81998 63.3753 6.77998C64.4953 5.73998 65.7753 5.21998 67.2153 5.21998C68.6553 5.21998 69.9286 5.73998 71.0353 6.77998C72.142 7.80665 72.6953 9.11998 72.6953 10.72C72.6953 11.8266 72.4086 12.8133 71.8353 13.68C71.262 14.5333 70.562 15.1666 69.7353 15.58C68.922 15.98 68.0753 16.18 67.1953 16.18C66.3153 16.18 65.462 15.9666 64.6353 15.54C63.8086 15.1 63.1086 14.46 62.5353 13.62C61.9753 12.7666 61.6953 11.8066 61.6953 10.74ZM65.8753 12.18C66.302 12.5 66.7353 12.66 67.1753 12.66C67.6153 12.66 68.0553 12.4933 68.4953 12.16C68.9353 11.8266 69.1553 11.3333 69.1553 10.68C69.1553 10.0266 68.9486 9.53998 68.5353 9.21998C68.122 8.89998 67.6753 8.73998 67.1953 8.73998C66.7153 8.73998 66.2686 8.90665 65.8553 9.23998C65.442 9.57331 65.2353 10.0666 65.2353 10.72C65.2353 11.36 65.4486 11.8466 65.8753 12.18Z" fill="#50A45A"/>
<path fill-rule="evenodd" clip-rule="evenodd" d="M12 10.5C12 7.4673 14.4673 5 17.5 5C20.5327 5 23 7.4673 23 10.5C23 13.5327 20.5327 16 17.5 16C14.4673 16 12 13.5327 12 10.5ZM13.3371 9.08705C13.1858 9.5309 13.1 10.0055 13.1 10.5C13.1 12.7396 14.7836 14.5898 16.95 14.862V13.8L15.3 12.15V11.05L13.3371 9.08705ZM19.7 12.7C20.0778 12.7 20.6223 12.8908 20.9815 13.1801C21.5767 12.4135 21.8999 11.4706 21.9 10.5C21.9 8.6575 20.7604 7.0779 19.15 6.42395V6.65C19.15 6.94174 19.0341 7.22153 18.8278 7.42782C18.6215 7.63411 18.3417 7.75 18.05 7.75H17.5V8.3C17.5 8.4265 17.4782 8.55075 17.4367 8.66774C16.4535 8.7011 15.6667 9.50866 15.6667 10.5C15.6667 11.5125 16.4875 12.3333 17.5 12.3333C18.2571 12.3333 18.907 11.8744 19.1867 11.2195C19.2554 11.2628 19.3195 11.3139 19.3778 11.3722C19.5841 11.5785 19.7 11.8583 19.7 12.15V12.7Z" fill="#50A45A"/>
<path fill-rule="evenodd" clip-rule="evenodd" d="M17.5 9.20139C16.7828 9.20139 16.2014 9.7828 16.2014 10.5C16.2014 11.2172 16.7828 11.7986 17.5 11.7986C18.2172 11.7986 18.7986 11.2172 18.7986 10.5C18.7986 9.7828 18.2172 9.20139 17.5 9.20139ZM15.1319 10.5C15.1319 9.19216 16.1922 8.13194 17.5 8.13194C18.8078 8.13194 19.8681 9.19216 19.8681 10.5C19.8681 11.8078 18.8078 12.8681 17.5 12.8681C16.1922 12.8681 15.1319 11.8078 15.1319 10.5Z" fill="#50A45A"/>
</svg>
