<svg width="73" height="16" viewBox="0 0 73 16" fill="none" xmlns="http://www.w3.org/2000/svg">
<path d="M7.52001 1.07997C7.62668 0.879966 7.80668 0.739966 8.06001 0.659967C8.31334 0.579966 8.64668 0.539966 9.06001 0.539966C9.48668 0.539966 9.82668 0.579966 10.08 0.659967C10.3333 0.739966 10.5067 0.879966 10.6 1.07997C10.7067 1.27997 10.7667 1.45997 10.78 1.61997C10.8067 1.76663 10.82 1.9933 10.82 2.29997V14.24C10.82 14.5466 10.8067 14.78 10.78 14.94C10.7667 15.0866 10.7067 15.2533 10.6 15.44C10.4 15.8 9.83334 15.98 8.90001 15.98C7.98001 15.98 7.46668 15.6533 7.36001 15C6.80001 15.64 6.02001 15.96 5.02001 15.96C3.82001 15.96 2.72668 15.44 1.74001 14.4C0.753343 13.3466 0.26001 12.1266 0.26001 10.74C0.26001 9.33997 0.753343 8.1133 1.74001 7.05997C2.74001 6.00663 3.83334 5.47997 5.02001 5.47997C6.00668 5.47997 6.77334 5.8133 7.32001 6.47997V2.27997C7.32001 1.9733 7.32668 1.74663 7.34001 1.59997C7.36668 1.43997 7.42668 1.26663 7.52001 1.07997ZM4.28001 11.94C4.62668 12.3 5.04668 12.48 5.54001 12.48C6.03334 12.48 6.44001 12.3 6.76001 11.94C7.09334 11.58 7.26001 11.1866 7.26001 10.76C7.26001 10.32 7.10001 9.9133 6.78001 9.53997C6.47334 9.16663 6.05334 8.97997 5.52001 8.97997C4.98668 8.97997 4.56001 9.16663 4.24001 9.53997C3.92001 9.89997 3.76001 10.3 3.76001 10.74C3.76001 11.18 3.93334 11.58 4.28001 11.94Z" fill="#50A45A"/>
<path d="M30.035 5.26C31.3683 5.26 32.475 5.77333 33.355 6.8C34.2483 7.81333 34.695 9.05333 34.695 10.52V14.04C34.695 14.3467 34.6817 14.58 34.655 14.74C34.6417 14.8867 34.5883 15.0533 34.495 15.24C34.3083 15.6 33.7883 15.78 32.935 15.78C31.9883 15.78 31.4417 15.5333 31.295 15.04C31.215 14.8133 31.175 14.4733 31.175 14.02V10.5C31.175 9.95333 31.015 9.52667 30.695 9.22C30.3883 8.91333 29.9683 8.76 29.435 8.76C28.915 8.76 28.4883 8.92 28.155 9.24C27.835 9.56 27.675 9.98 27.675 10.5V14.04C27.675 14.3467 27.6617 14.58 27.635 14.74C27.6217 14.8867 27.5617 15.0533 27.455 15.24C27.2817 15.6 26.7683 15.78 25.915 15.78C25.075 15.78 24.5617 15.6 24.375 15.24C24.2817 15.04 24.2217 14.8667 24.195 14.72C24.1817 14.56 24.175 14.3267 24.175 14.02V6.94C24.175 6.64667 24.1817 6.42667 24.195 6.28C24.2217 6.12 24.2883 5.94667 24.395 5.76C24.5817 5.42667 25.095 5.26 25.935 5.26C26.7483 5.26 27.2483 5.41333 27.435 5.72C27.5683 5.94667 27.635 6.22 27.635 6.54C27.6883 6.44667 27.8083 6.31333 27.995 6.14C28.1817 5.96667 28.3617 5.82667 28.535 5.72C28.9883 5.41333 29.4883 5.26 30.035 5.26Z" fill="#50A45A"/>
<path d="M43.1439 6.38C43.2239 5.63333 43.7506 5.26 44.7239 5.26C45.2439 5.26 45.6306 5.3 45.8839 5.38C46.1372 5.46 46.3106 5.6 46.4039 5.8C46.5106 6 46.5706 6.18 46.5839 6.34C46.6106 6.48667 46.6239 6.71333 46.6239 7.02V14.02C46.6239 14.3267 46.6106 14.56 46.5839 14.72C46.5706 14.8667 46.5172 15.04 46.4239 15.24C46.2372 15.5867 45.7772 15.76 45.0439 15.76C44.3239 15.76 43.8372 15.6733 43.5839 15.5C43.3439 15.3133 43.2039 15.0467 43.1639 14.7C42.6706 15.4067 41.8439 15.76 40.6839 15.76C39.5372 15.76 38.4706 15.2333 37.4839 14.18C36.4972 13.1267 36.0039 11.9067 36.0039 10.52C36.0039 9.12 36.4972 7.9 37.4839 6.86C38.4839 5.80667 39.5772 5.28 40.7639 5.28C41.2172 5.28 41.6306 5.36 42.0039 5.52C42.3772 5.68 42.6372 5.83333 42.7839 5.98C42.9306 6.11333 43.0506 6.24667 43.1439 6.38ZM39.5039 10.54C39.5039 10.98 39.6772 11.38 40.0239 11.74C40.3706 12.0867 40.7906 12.26 41.2839 12.26C41.7772 12.26 42.1839 12.08 42.5039 11.72C42.8372 11.36 43.0039 10.9667 43.0039 10.54C43.0039 10.1 42.8439 9.69333 42.5239 9.32C42.2172 8.94667 41.7972 8.76 41.2639 8.76C40.7439 8.76 40.3172 8.94667 39.9839 9.32C39.6639 9.69333 39.5039 10.1 39.5039 10.54Z" fill="#50A45A"/>
<path d="M54.338 8.8L53.038 8.72V11.48C53.038 11.84 53.0913 12.1 53.198 12.26C53.318 12.42 53.5313 12.5 53.838 12.5C54.158 12.5 54.398 12.5133 54.558 12.54C54.7313 12.5533 54.9113 12.6133 55.098 12.72C55.4046 12.8933 55.558 13.34 55.558 14.06C55.558 14.9 55.3713 15.4133 54.998 15.6C54.798 15.6933 54.618 15.7533 54.458 15.78C54.3113 15.7933 54.0913 15.8 53.798 15.8C52.4113 15.8 51.358 15.4867 50.638 14.86C49.918 14.2333 49.558 13.1733 49.558 11.68V8.72C49.3046 8.76 49.0313 8.78 48.738 8.78C48.4446 8.78 48.198 8.66667 47.998 8.44C47.8113 8.21333 47.718 7.82667 47.718 7.28C47.718 6.73333 47.7513 6.34 47.818 6.1C47.8846 5.84667 47.978 5.66667 48.098 5.56C48.3113 5.38667 48.578 5.3 48.898 5.3L49.558 5.38V3.32C49.558 3.01333 49.5646 2.78667 49.578 2.64C49.6046 2.49333 49.6713 2.33333 49.778 2.16C49.9513 1.82667 50.4646 1.66 51.318 1.66C52.2246 1.66 52.7646 1.90667 52.938 2.4C53.0046 2.61333 53.038 2.95333 53.038 3.42V5.38C53.6246 5.32667 54.0646 5.3 54.358 5.3C54.6646 5.3 54.8913 5.31333 55.038 5.34C55.198 5.35333 55.378 5.41333 55.578 5.52C55.9246 5.69333 56.098 6.20667 56.098 7.06C56.098 7.9 55.918 8.41333 55.558 8.6C55.358 8.69333 55.178 8.75333 55.018 8.78C54.8713 8.79333 54.6446 8.8 54.338 8.8Z" fill="#50A45A"/>
<path d="M57.2023 7.02C57.2023 6.71333 57.209 6.48667 57.2223 6.34C57.249 6.18 57.309 6 57.4023 5.8C57.589 5.45333 58.109 5.28 58.9623 5.28C59.6023 5.28 60.0557 5.39333 60.3223 5.62C60.549 5.80667 60.669 6.09333 60.6823 6.48C60.6957 6.61333 60.7023 6.80667 60.7023 7.06V14.06C60.7023 14.3667 60.689 14.6 60.6623 14.76C60.649 14.9067 60.589 15.08 60.4823 15.28C60.309 15.6267 59.7957 15.8 58.9423 15.8C58.1023 15.8 57.589 15.62 57.4023 15.26C57.309 15.06 57.249 14.8867 57.2223 14.74C57.209 14.5933 57.2023 14.36 57.2023 14.04V7.02ZM60.4823 3.32C60.389 3.50667 60.2157 3.64 59.9623 3.72C59.709 3.8 59.369 3.84 58.9423 3.84C58.529 3.84 58.1957 3.8 57.9423 3.72C57.689 3.64 57.509 3.5 57.4023 3.3C57.309 3.1 57.249 2.92667 57.2223 2.78C57.209 2.62 57.2023 2.38667 57.2023 2.08C57.2023 1.77333 57.209 1.54667 57.2223 1.4C57.249 1.24 57.309 1.06667 57.4023 0.88C57.589 0.52 58.109 0.34 58.9623 0.34C59.8023 0.34 60.309 0.52 60.4823 0.88C60.589 1.08 60.649 1.26 60.6623 1.42C60.689 1.56667 60.7023 1.79333 60.7023 2.1C60.7023 2.40667 60.689 2.64 60.6623 2.8C60.649 2.94667 60.589 3.12 60.4823 3.32Z" fill="#50A45A"/>
<path d="M62 10.54C62 8.94 62.56 7.62 63.68 6.58C64.8 5.54 66.08 5.02 67.52 5.02C68.96 5.02 70.2333 5.54 71.34 6.58C72.4467 7.60667 73 8.92 73 10.52C73 11.6267 72.7133 12.6133 72.14 13.48C71.5667 14.3333 70.8667 14.9667 70.04 15.38C69.2267 15.78 68.38 15.98 67.5 15.98C66.62 15.98 65.7667 15.7667 64.94 15.34C64.1133 14.9 63.4133 14.26 62.84 13.42C62.28 12.5667 62 11.6067 62 10.54ZM66.18 11.98C66.6067 12.3 67.04 12.46 67.48 12.46C67.92 12.46 68.36 12.2933 68.8 11.96C69.24 11.6267 69.46 11.1333 69.46 10.48C69.46 9.82667 69.2533 9.34 68.84 9.02C68.4267 8.7 67.98 8.54 67.5 8.54C67.02 8.54 66.5733 8.70667 66.16 9.04C65.7467 9.37333 65.54 9.86667 65.54 10.52C65.54 11.16 65.7533 11.6467 66.18 11.98Z" fill="#50A45A"/>
<path d="M23 10.5C23 13.5376 20.5376 16 17.5 16C14.4624 16 12 13.5376 12 10.5C12 7.46243 14.4624 5 17.5 5C20.5376 5 23 7.46243 23 10.5ZM15.7129 10.5C15.7129 11.487 16.513 12.2871 17.5 12.2871C18.487 12.2871 19.2871 11.487 19.2871 10.5C19.2871 9.51299 18.487 8.71286 17.5 8.71286C16.513 8.71286 15.7129 9.51299 15.7129 10.5Z" fill="#50A45A"/>
<path fill-rule="evenodd" clip-rule="evenodd" d="M12.2103 9.06397C12.0831 9.53209 12.0188 10.0151 12.019 10.5001C12.019 12.8886 13.5548 14.9248 15.691 15.675C15.6887 15.6722 15.6887 15.6691 15.6887 15.6662C15.5909 15.2788 15.5198 14.8852 15.476 14.4881C15.4704 14.4388 15.4656 14.3892 15.4609 14.3396C15.4333 14.0486 15.4056 13.7572 15.1883 13.5358C15.0933 13.4377 14.9819 13.3659 14.8721 13.295C14.6942 13.1802 14.5201 13.0679 14.4255 12.8507C14.327 12.6242 14.3403 12.3756 14.3536 12.1278C14.3687 11.8458 14.3838 11.5648 14.234 11.3186C14.0837 11.0716 13.8433 10.9787 13.6036 10.886C13.3374 10.7831 13.0718 10.6804 12.9311 10.3674C12.824 10.1279 12.6907 9.90791 12.5581 9.68889C12.4345 9.4848 12.3114 9.28153 12.2103 9.06397ZM16.5865 15.9046C16.8883 15.9554 17.1939 15.981 17.5 15.9811C18.3341 15.981 19.1572 15.7904 19.9064 15.4236C20.6556 15.0568 21.3111 14.5237 21.8228 13.8649C21.7501 13.5838 21.7048 13.2963 21.6874 13.0065C21.6836 12.9539 21.6807 12.9019 21.678 12.8504C21.6676 12.6598 21.6577 12.4757 21.595 12.2869C21.509 12.0268 21.4505 11.833 21.4562 11.5529C21.4685 10.9323 21.123 10.993 20.7107 11.0654C20.5975 11.0853 20.4793 11.1061 20.362 11.1139C19.9445 11.141 19.55 10.9922 19.2759 10.7014C19.2092 11.2958 18.8511 11.802 18.3477 12.0738C18.3688 12.1202 18.3858 12.1692 18.398 12.2209C18.5014 12.6545 18.4263 13.1541 18.1757 13.5252C18.0257 13.7482 17.8209 13.9183 17.6161 14.0885C17.4717 14.2086 17.3272 14.3286 17.2019 14.4672C16.8954 14.8069 16.6681 15.2508 16.5988 15.7047C16.5924 15.7461 16.5903 15.8024 16.588 15.8641C16.5875 15.8774 16.587 15.8909 16.5865 15.9046ZM19.0043 9.53502C18.6864 9.04055 18.1314 8.71301 17.4999 8.71301C16.5173 8.71301 15.7199 9.50607 15.7128 10.487C15.6699 10.4848 15.626 10.4791 15.5802 10.4673C15.5336 10.4552 15.4901 10.439 15.4474 10.4231C15.3544 10.3885 15.2656 10.3554 15.1572 10.3697C15.0273 10.3867 14.9186 10.4573 14.8105 10.5273C14.6726 10.6167 14.5358 10.7054 14.3579 10.6814C14.0567 10.6412 13.7464 10.2886 13.6779 10.0017C13.59 9.6329 13.8817 9.51329 14.1943 9.48046C14.3247 9.46676 14.4712 9.45192 14.5965 9.49987C14.6881 9.5338 14.7529 9.59872 14.8178 9.66373C14.8697 9.71578 14.9217 9.76788 14.9876 9.80418C15.2653 9.95662 15.3216 9.71312 15.2791 9.46648C15.2721 9.42631 15.2651 9.38873 15.2584 9.35333C15.204 9.06314 15.177 8.91899 15.4706 8.69229C15.4843 8.68176 15.4979 8.6714 15.5114 8.66116C15.7216 8.5011 15.892 8.37135 15.8577 8.07541C15.8505 8.01452 15.8348 7.96461 15.8202 7.91848C15.7905 7.82447 15.7658 7.74618 15.8291 7.62266C15.8994 7.48519 16.09 7.36091 16.2182 7.27727L16.2257 7.27239C16.3237 7.20843 16.4882 7.16482 16.6595 7.1194C17.0661 7.01158 17.5114 6.89353 17.1991 6.46852C17.0686 6.29125 16.828 5.97439 16.5996 5.93099C16.4055 5.89431 16.2848 6.02986 16.1648 6.16454C16.1084 6.22793 16.0521 6.29112 15.9884 6.33607C15.7829 6.48137 15.3827 6.64637 15.1769 6.42171C14.9927 6.22062 15.1347 6.10947 15.2805 5.9954C15.3539 5.93799 15.4282 5.87983 15.4623 5.8091C15.5094 5.71062 15.4623 5.57388 15.383 5.44513C15.4859 5.40174 15.5906 5.36149 15.697 5.32438C15.7636 5.37362 15.8427 5.40328 15.9253 5.41002C15.9896 5.41425 16.0526 5.40535 16.1143 5.39665C16.236 5.37948 16.3525 5.36304 16.4632 5.44942C16.5116 5.48681 16.5565 5.52678 16.6008 5.56622C16.7257 5.67735 16.8458 5.78423 17.027 5.81709C17.2645 5.8602 17.516 5.72175 17.5748 5.47853C17.6101 5.33205 17.5754 5.17744 17.5415 5.02609L17.5405 5.02179C18.6081 5.02793 19.6504 5.34767 20.5379 5.94127C20.4808 5.91958 20.4126 5.92215 20.3284 5.96125C20.1551 6.04175 19.9096 6.24672 19.8893 6.44997C19.8662 6.68063 20.2065 6.71317 20.368 6.71317C20.6107 6.71317 20.8565 6.60469 20.7782 6.32437C20.7443 6.20276 20.698 6.0763 20.6235 5.99979C20.8026 6.12406 20.9742 6.25884 21.1374 6.40344C21.1365 6.4043 21.1356 6.40512 21.1348 6.40595C21.1331 6.4076 21.1314 6.40924 21.1296 6.41115C21.0815 6.46129 21.0311 6.50837 20.9811 6.55512C20.8601 6.66805 20.7413 6.77903 20.6618 6.92641C20.5824 7.07314 20.4931 7.14279 20.3323 7.18076C20.3133 7.18524 20.2937 7.18912 20.2739 7.19303C20.2016 7.2073 20.1268 7.22208 20.0686 7.26868C19.8619 7.4314 19.9795 7.82248 20.1753 7.93981C20.4228 8.08797 20.7899 8.01831 20.9766 7.80678C21.017 7.76094 21.0528 7.70575 21.089 7.64992C21.1836 7.50409 21.2811 7.35383 21.4708 7.35404C21.5863 7.3538 21.6972 7.39902 21.7797 7.47993C21.8619 7.56519 21.8695 7.6462 21.8784 7.74159C21.8813 7.77203 21.8843 7.80393 21.8898 7.8379C21.9307 8.08739 22.1508 7.95208 22.2846 7.82619C22.3822 7.99987 22.4703 8.17875 22.5484 8.36201C22.5379 8.37716 22.5275 8.3924 22.5172 8.40757C22.3832 8.6047 22.2588 8.78768 21.9298 8.55813C21.8573 8.50745 21.7943 8.44896 21.7321 8.39126C21.6126 8.28026 21.4962 8.17217 21.3209 8.12822C21.1198 8.07887 20.9145 8.11653 20.7141 8.15327C20.6826 8.15905 20.6513 8.16479 20.6201 8.17018C20.5824 8.17674 20.5436 8.18276 20.5044 8.18887C20.2718 8.22505 20.0206 8.26412 19.8511 8.43338C19.7593 8.52472 19.6883 8.63086 19.6167 8.73772C19.5389 8.85395 19.4605 8.97102 19.3543 9.07082C19.1976 9.21839 19.0768 9.37132 19.0043 9.53502Z" fill="#96D2E5"/>
</svg>
