<svg width="98" height="105" viewBox="0 0 98 105" fill="none" xmlns="http://www.w3.org/2000/svg">
<path d="M13.041 77.8156C13.6125 34.0767 18.296 15.1184 49.041 13.3156C79.2107 14.5058 83.922 33.4882 84.541 77.8156C60.5056 85.2376 45.3223 86.1389 13.041 77.8156Z" fill="#FAE1A1" stroke="#735A44" stroke-linecap="round" stroke-linejoin="round"/>
<path d="M6.04109 65.3155C15.4037 49.3419 17.541 50.3156 13.5411 67.8156L13.5411 80.5C4.66416 78.4932 1.79153 72.8035 6.04109 65.3155Z" fill="#F5C870" stroke="#735A44" stroke-linecap="round" stroke-linejoin="round"/>
<path d="M91.5278 65.3155C82.1652 49.3419 80.0278 50.3156 84.0278 67.8156V80.5C92.9047 78.4932 95.7773 72.8035 91.5278 65.3155Z" fill="#F5C870" stroke="#735A44" stroke-linecap="round" stroke-linejoin="round"/>
<path d="M71.9095 32.4643C78.5323 42.9709 95.9358 44.8734 95.3563 41.7647C94.7768 38.656 78.3853 25.7887 73.4167 21.5681C68.4481 17.3474 65.2867 21.9577 71.9095 32.4643Z" fill="#F5C870" stroke="#735A44" stroke-linecap="round" stroke-linejoin="round"/>
<path d="M26.7366 32.4643C20.1138 42.9709 2.71028 44.8734 3.28979 41.7647C3.8693 38.656 20.2608 25.7887 25.2294 21.5681C30.198 17.3474 33.3594 21.9577 26.7366 32.4643Z" fill="#F5C870" stroke="#735A44" stroke-linecap="round" stroke-linejoin="round"/>
<path d="M72.9284 80.8156C78.4725 94.3156 62.1723 100.316 48.9039 100.316C35.6356 100.316 20.2594 95.8156 24.8794 80.8156C27.9595 70.8156 35.6356 61.3156 48.9039 61.3156C62.1723 61.3156 69.2323 71.8156 72.9284 80.8156ZM41.5118 82.3156C41.5118 85.4744 45.0122 86.5351 48.9039 86.5351C52.7956 86.5351 56.2961 85.4744 56.2961 82.3156C56.2961 79.1568 52.7956 75.0961 48.9039 75.0961C45.0122 75.0961 41.5118 79.1568 41.5118 82.3156Z" fill="#FFFDCE"/>
<path d="M38.0634 33.7556C38.6397 30.7092 44.6125 30.8092 44.978 32.45C45.4412 34.5297 43.2536 35.1986 41.638 35.2948C39.8215 35.403 37.8057 35.118 38.0634 33.7556Z" fill="#FFFDCE" stroke="#735A44"/>
<path d="M61.0186 33.7556C60.4424 30.7092 54.4696 30.8092 54.1041 32.45C53.6408 34.5297 55.8284 35.1986 57.4441 35.2948C59.2606 35.403 61.2763 35.118 61.0186 33.7556Z" fill="#FFFDCE" stroke="#735A44"/>
<path d="M43.9587 41.3156L39.041 42.3156M55.041 41.3156L59.9587 42.3156M43.9587 40.3156L39.041 41.3156M55.041 40.3156L59.9587 41.3156" stroke="#735A44" stroke-linecap="round"/>
<path d="M51.041 47.3156C51.4609 46.6858 50.3743 46.3156 49.5409 46.3156C48.5409 46.3156 47.6319 46.7018 48.0409 47.3156C49.0408 48.8157 50.041 48.8156 51.041 47.3156Z" fill="#A38067" stroke="#735A44"/>
<path d="M47.541 50.8781C48.541 50.9406 49.541 50.5656 49.541 49.8156C49.541 50.5656 50.541 50.9406 51.541 50.8781C51.541 56.5 47.541 56.5 47.541 50.8781Z" fill="#FCB5B5"/>
<path d="M49.541 48.8156V49.8156M49.541 49.8156C49.541 50.5656 48.541 50.9406 47.541 50.8781M49.541 49.8156C49.541 50.5656 50.541 50.9406 51.541 50.8781M45.541 49.3156C45.541 50.3156 46.541 50.8156 47.541 50.8781M53.541 49.3156C53.541 50.3156 52.541 50.8156 51.541 50.8781M47.541 50.8781C47.541 56.5 51.541 56.5 51.541 50.8781" stroke="#735A44" stroke-linecap="round" stroke-linejoin="round"/>
<path d="M18.541 76.3156H20.541H77.541H79.541L79.041 74.8156H19.041L18.541 76.3156Z" fill="#CDC5C2"/>
<path d="M9.54102 101.816C10.541 101.816 61.3744 102.233 88.041 101.816L79.541 76.3156H77.541H20.541H18.541L9.54102 101.816Z" fill="#CDC5C2"/>
<path d="M88.041 101.816C61.3744 102.233 10.541 101.816 9.54102 101.816L10.041 103.816H87.041L88.041 101.816Z" fill="#CDC5C2"/>
<path d="M9.54102 101.816C10.541 101.816 61.3744 102.233 88.041 101.816M9.54102 101.816L18.541 76.3156M9.54102 101.816L10.041 103.816H87.041L88.041 101.816M88.041 101.816L79.541 76.3156M79.541 76.3156H18.541M79.541 76.3156L79.041 74.8156H19.041L18.541 76.3156M79.541 76.3156H77.541M18.541 76.3156H20.541M11.541 101.816L20.541 76.3156M20.541 76.3156H77.541M86.041 101.816L77.541 76.3156" stroke="#735A44" stroke-linecap="round" stroke-linejoin="round"/>
<path d="M21.041 78.3156H77.041L84.041 101.316H13.541L21.041 78.3156Z" fill="#ECECEC"/>
<ellipse cx="49.541" cy="84.3156" rx="8" ry="4" fill="#7D5C5C" fill-opacity="0.32" style="mix-blend-mode:multiply"/>
<ellipse cx="68.541" cy="84.3156" rx="8" ry="4" fill="#7D5C5C" fill-opacity="0.32" style="mix-blend-mode:multiply"/>
<ellipse cx="30.541" cy="84.3156" rx="8" ry="4" fill="#7D5C5C" fill-opacity="0.32" style="mix-blend-mode:multiply"/>
<ellipse cx="49.541" cy="96.8156" rx="9" ry="4.5" fill="#7D5C5C" fill-opacity="0.32" style="mix-blend-mode:multiply"/>
<ellipse cx="71.541" cy="96.8156" rx="9" ry="4.5" fill="#7D5C5C" fill-opacity="0.32" style="mix-blend-mode:multiply"/>
<ellipse cx="28.541" cy="96.8156" rx="8" ry="4.5" fill="#7D5C5C" fill-opacity="0.32" style="mix-blend-mode:multiply"/>
<path d="M57.9076 94.8156C57.9076 97.8532 54.1319 100.316 49.4743 100.316C44.8167 100.316 41.041 97.8532 41.041 94.8156C41.041 91.7781 44.8167 89.3157 49.4743 89.3157C54.1319 89.3157 57.9076 91.7781 57.9076 94.8156ZM47.6235 94.8156C47.6235 95.4823 48.4521 95.5489 49.4743 95.5489C50.4965 95.5489 51.3252 95.4823 51.3252 94.8156C51.3252 94.149 50.4965 93.6086 49.4743 93.6086C48.4521 93.6086 47.6235 94.149 47.6235 94.8156Z" fill="#50A45A"/>
<path d="M41.3636 93.3794C41.1686 93.8475 41.07 94.3305 41.0703 94.8155C41.0703 97.204 43.4252 99.2402 46.7006 99.9904C46.6971 99.9876 46.6971 99.9844 46.6971 99.9816C46.5471 99.5942 46.4381 99.2006 46.371 98.8035C46.3623 98.7542 46.3551 98.7046 46.3478 98.655C46.3054 98.364 46.2629 98.0726 45.9298 97.8512C45.7841 97.7531 45.6134 97.6813 45.4449 97.6104C45.1721 97.4956 44.9053 97.3833 44.7602 97.1661C44.6091 96.9396 44.6295 96.691 44.6499 96.4432C44.6731 96.1612 44.6962 95.8802 44.4665 95.634C44.2361 95.387 43.8676 95.2941 43.4999 95.2014C43.0917 95.0985 42.6846 94.9958 42.4688 94.6828C42.3045 94.4433 42.1003 94.2233 41.8969 94.0043C41.7073 93.8002 41.5185 93.5969 41.3636 93.3794Z" fill="#96D2E5"/>
<path d="M48.0737 100.22C48.5365 100.271 49.005 100.296 49.4744 100.296C50.7534 100.296 52.0155 100.106 53.1642 99.739C54.313 99.3722 55.318 98.8391 56.1026 98.1803C55.9912 97.8992 55.9218 97.6117 55.8951 97.3219C55.8892 97.2693 55.8849 97.2173 55.8806 97.1658C55.8648 96.9752 55.8495 96.7911 55.7533 96.6023C55.6216 96.3422 55.5318 96.1484 55.5406 95.8683C55.5595 95.2477 55.0297 95.3084 54.3974 95.3808C54.2239 95.4007 54.0426 95.4215 53.8628 95.4293C53.0132 95.4653 52.2258 95.1915 51.8494 94.6871C51.4581 94.1624 51.7132 93.7573 52.3177 93.3862C52.4805 93.2864 52.6007 93.1694 52.72 93.0531C52.8297 92.9463 52.9387 92.8401 53.0793 92.7488C53.3392 92.5795 53.7244 92.5405 54.0811 92.5043C54.1413 92.4982 54.2007 92.4922 54.2585 92.4856C54.3064 92.4802 54.3544 92.4745 54.4027 92.4687C54.7099 92.4319 55.0248 92.3943 55.3331 92.4436C55.6018 92.4876 55.7803 92.5957 55.9636 92.7067C56.0589 92.7644 56.1555 92.8229 56.2667 92.8735C56.7711 93.1031 56.9619 92.9201 57.1674 92.723C57.1832 92.7078 57.1991 92.6926 57.2153 92.6774C57.0955 92.4942 56.9605 92.3153 56.8108 92.1416C56.6055 92.2675 56.2681 92.4028 56.2055 92.1533C56.1969 92.1193 56.1923 92.0874 56.1879 92.057C56.1742 91.9616 56.1626 91.8806 56.0365 91.7953C55.9101 91.7144 55.74 91.6692 55.5629 91.6695C55.272 91.6693 55.1226 91.8195 54.9776 91.9653C54.922 92.0212 54.8672 92.0764 54.8052 92.1222C54.519 92.3337 53.9561 92.4034 53.5766 92.2552C53.2763 92.1379 53.096 91.7468 53.4129 91.5841C53.5022 91.5375 53.6169 91.5227 53.7277 91.5085C53.7581 91.5045 53.7881 91.5007 53.8173 91.4962C54.0637 91.4582 54.2008 91.3886 54.3224 91.2418C54.4444 91.0945 54.6266 90.9835 54.812 90.8705C54.8887 90.8238 54.966 90.7767 55.0398 90.7266C55.0425 90.7247 55.0451 90.723 55.0477 90.7214C55.049 90.7205 55.0503 90.7197 55.0517 90.7189C54.8015 90.5743 54.5384 90.4395 54.2638 90.3152C54.378 90.3917 54.4489 90.5182 54.501 90.6398C54.621 90.9201 54.2441 91.0286 53.872 91.0286C53.6243 91.0286 53.1025 90.9961 53.138 90.7654C53.1691 90.5621 53.5455 90.3572 53.8112 90.2767C53.9403 90.2376 54.0449 90.235 54.1325 90.2567C52.7717 89.6631 51.1736 89.3434 49.5365 89.3372L49.538 89.3415C49.5901 89.4929 49.6432 89.6475 49.589 89.794C49.4989 90.0372 49.1132 90.1756 48.7491 90.1325C48.4712 90.0997 48.2871 89.9928 48.0957 89.8817C48.0278 89.8422 47.9589 89.8022 47.8846 89.7648C47.715 89.6785 47.5363 89.6949 47.3497 89.7121C47.2551 89.7208 47.1585 89.7297 47.0599 89.7255C46.9333 89.7187 46.812 89.6891 46.7098 89.6398C46.5467 89.6769 46.3862 89.7172 46.2283 89.7606C46.35 89.8893 46.4222 90.026 46.35 90.1245C46.2977 90.1953 46.1837 90.2534 46.0712 90.3108C45.8477 90.4249 45.6298 90.5361 45.9123 90.7371C46.2279 90.9618 46.8415 90.7968 47.1567 90.6515C47.2543 90.6065 47.3406 90.5434 47.4272 90.48C47.6111 90.3453 47.7962 90.2097 48.0938 90.2464C48.444 90.2898 48.813 90.6067 49.013 90.784C49.4919 91.2089 48.8091 91.327 48.1856 91.4348C47.9229 91.4802 47.6708 91.5238 47.5204 91.5878L47.509 91.5927C47.3123 91.6763 47.0202 91.8006 46.9124 91.9381C46.8152 92.0616 46.8532 92.1399 46.8987 92.2339C46.9211 92.28 46.9453 92.3299 46.9562 92.3908C47.0089 92.6868 46.7475 92.8165 46.4252 92.9766C46.4046 92.9868 46.3837 92.9972 46.3627 93.0077C45.9125 93.2344 45.9539 93.3786 46.0374 93.6687C46.0475 93.7041 46.0584 93.7417 46.069 93.7819C46.1342 94.0285 46.048 94.272 45.6221 94.1196C45.5211 94.0833 45.4413 94.0312 45.3617 93.9791C45.2622 93.9141 45.1629 93.8492 45.0224 93.8153C44.8302 93.7673 44.6057 93.7822 44.4057 93.7959C43.9264 93.8287 43.479 93.9483 43.6138 94.3171C43.7189 94.604 44.1947 94.9566 44.6565 94.9968C44.9293 95.0208 45.1391 94.9321 45.3505 94.8427C45.5162 94.7727 45.683 94.7022 45.8821 94.6851C46.0483 94.6708 46.1846 94.7039 46.3272 94.7385C46.3925 94.7544 46.4592 94.7706 46.5308 94.7827C46.6847 94.8086 46.8239 94.8049 46.9671 94.8011C47.0547 94.7987 47.1439 94.7964 47.239 94.8007C47.378 94.8071 47.5055 94.8321 47.6253 94.8692C47.6241 94.8518 47.6235 94.8339 47.6235 94.8156C47.6235 94.149 48.4521 93.6086 49.4743 93.6086C50.4965 93.6086 51.3252 94.149 51.3252 94.8156C51.3252 95.4823 50.4965 95.5489 49.4743 95.5489C49.3436 95.5489 49.2161 95.5478 49.0931 95.5445C49.1706 95.5716 49.25 95.5986 49.3301 95.6259C49.9843 95.8483 50.688 96.0877 50.8514 96.5363C51.0098 96.9699 50.8947 97.4695 50.5104 97.8406C50.2804 98.0636 49.9665 98.2337 49.6525 98.4039C49.431 98.524 49.2095 98.644 49.0174 98.7826C48.5473 99.1223 48.1989 99.5662 48.0925 100.02C48.0828 100.061 48.0796 100.118 48.0761 100.18C48.0753 100.193 48.0745 100.206 48.0737 100.22Z" fill="#96D2E5"/>
<path fill-rule="evenodd" clip-rule="evenodd" d="M41.5794 94.1482C41.5225 94.6725 41.5337 95.0213 41.5812 95.4996C41.653 96.2235 43.0027 99.8156 49.5424 99.8156C52.8101 99.8156 54.79 98.7808 55.9546 97.7346C56.5414 97.2075 56.93 96.6697 57.1734 96.2424C57.2951 96.0287 57.3795 95.8444 57.4336 95.7055C57.4835 95.5777 57.5004 95.5075 57.5039 95.4926C57.5046 95.4899 57.5048 95.4891 57.5047 95.49C57.5541 95.074 57.5522 94.6846 57.5047 94.1434C57.2935 92.8407 55.5064 89.8156 49.5424 89.8156C43.5711 89.8156 41.787 92.8482 41.5794 94.1482ZM40.5895 94.006C40.8801 92.1224 43.1724 88.8156 49.5424 88.8156C55.9124 88.8156 58.2047 92.1224 58.4953 94.006C58.497 94.0166 58.4983 94.0272 58.4992 94.0379C58.5522 94.6323 58.5582 95.0984 58.4977 95.6079C58.4832 95.7302 58.4328 95.8957 58.3653 96.069C58.293 96.2543 58.1875 96.4824 58.0423 96.7373C57.7518 97.2474 57.298 97.8722 56.6229 98.4786C55.2637 99.6995 53.0417 100.816 49.5424 100.816C42.5481 100.816 40.7143 96.8909 40.5861 95.5983C40.5331 95.0643 40.5191 94.6425 40.5866 94.0277C40.5874 94.0205 40.5884 94.0132 40.5895 94.006ZM48.2695 94.6772C48.3423 94.7174 48.425 94.7552 48.5179 94.7895C48.8125 94.8983 49.1719 94.9573 49.5424 94.9573C49.9129 94.9573 50.2723 94.8983 50.5669 94.7895C50.6598 94.7552 50.7425 94.7174 50.8153 94.6772C50.7604 94.6526 50.6977 94.6284 50.6267 94.6053C50.3237 94.5066 49.9399 94.4523 49.5424 94.4523C49.1449 94.4523 48.7611 94.5066 48.4581 94.6053C48.3871 94.6284 48.3244 94.6526 48.2695 94.6772ZM51.3272 93.8137C51.1995 93.7493 51.0668 93.6969 50.9363 93.6544C50.5125 93.5164 50.0206 93.4523 49.5424 93.4523C49.0642 93.4523 48.5723 93.5164 48.1484 93.6544C48.018 93.6969 47.8853 93.7493 47.7576 93.8137C47.6688 93.6746 47.5131 93.5823 47.3358 93.5823C47.0596 93.5823 46.8358 93.8061 46.8358 94.0823C46.8358 94.4039 46.9302 94.6935 47.095 94.9401C47.3504 95.3226 47.7534 95.5733 48.1716 95.7276C48.5946 95.8838 49.074 95.9573 49.5424 95.9573C50.0108 95.9573 50.4902 95.8838 50.9133 95.7276C51.3314 95.5733 51.7344 95.3226 51.9899 94.9401C52.1546 94.6935 52.249 94.4039 52.249 94.0823C52.249 93.8061 52.0252 93.5823 51.749 93.5823C51.5717 93.5823 51.416 93.6746 51.3272 93.8137Z" fill="#735A44"/>
<path d="M35.9076 94.8156C35.9076 97.8532 32.1319 100.316 27.4743 100.316C22.8167 100.316 19.041 97.8532 19.041 94.8156C19.041 91.7781 22.8167 89.3157 27.4743 89.3157C32.1319 89.3157 35.9076 91.7781 35.9076 94.8156ZM25.6235 94.8156C25.6235 95.4823 26.4521 95.5489 27.4743 95.5489C28.4965 95.5489 29.3252 95.4823 29.3252 94.8156C29.3252 94.149 28.4965 93.6086 27.4743 93.6086C26.4521 93.6086 25.6235 94.149 25.6235 94.8156Z" fill="#50A45A"/>
<path d="M19.3636 93.3794C19.1686 93.8475 19.07 94.3305 19.0703 94.8155C19.0703 97.204 21.4252 99.2402 24.7006 99.9904C24.6971 99.9876 24.6971 99.9844 24.6971 99.9816C24.5471 99.5942 24.4381 99.2006 24.371 98.8035C24.3623 98.7542 24.3551 98.7046 24.3478 98.655C24.3054 98.364 24.2629 98.0726 23.9298 97.8512C23.7841 97.7531 23.6134 97.6813 23.4449 97.6104C23.1721 97.4956 22.9053 97.3833 22.7602 97.1661C22.6091 96.9396 22.6295 96.691 22.6499 96.4432C22.6731 96.1612 22.6962 95.8802 22.4665 95.634C22.2361 95.387 21.8676 95.2941 21.4999 95.2014C21.0917 95.0985 20.6846 94.9958 20.4688 94.6828C20.3045 94.4433 20.1003 94.2233 19.8969 94.0043C19.7073 93.8002 19.5185 93.5969 19.3636 93.3794Z" fill="#96D2E5"/>
<path d="M26.0737 100.22C26.5365 100.271 27.005 100.296 27.4744 100.296C28.7534 100.296 30.0155 100.106 31.1642 99.739C32.313 99.3722 33.318 98.8391 34.1026 98.1803C33.9912 97.8992 33.9218 97.6117 33.8951 97.3219C33.8892 97.2693 33.8849 97.2173 33.8806 97.1658C33.8648 96.9752 33.8495 96.7911 33.7533 96.6023C33.6216 96.3422 33.5318 96.1484 33.5406 95.8683C33.5595 95.2477 33.0297 95.3084 32.3974 95.3808C32.2239 95.4007 32.0426 95.4215 31.8628 95.4293C31.0132 95.4653 30.2258 95.1915 29.8494 94.6871C29.4581 94.1624 29.7132 93.7573 30.3177 93.3862C30.4805 93.2864 30.6007 93.1694 30.72 93.0531C30.8297 92.9463 30.9387 92.8401 31.0793 92.7488C31.3392 92.5795 31.7244 92.5405 32.0811 92.5043C32.1413 92.4982 32.2007 92.4922 32.2585 92.4856C32.3064 92.4802 32.3544 92.4745 32.4027 92.4687C32.7099 92.4319 33.0248 92.3943 33.3331 92.4436C33.6018 92.4876 33.7803 92.5957 33.9636 92.7067C34.0589 92.7644 34.1555 92.8229 34.2667 92.8735C34.7711 93.1031 34.9619 92.9201 35.1674 92.723C35.1832 92.7078 35.1991 92.6926 35.2153 92.6774C35.0955 92.4942 34.9605 92.3153 34.8108 92.1416C34.6055 92.2675 34.2681 92.4028 34.2055 92.1533C34.1969 92.1193 34.1923 92.0874 34.1879 92.057C34.1742 91.9616 34.1626 91.8806 34.0365 91.7953C33.9101 91.7144 33.74 91.6692 33.5629 91.6695C33.272 91.6693 33.1226 91.8195 32.9776 91.9653C32.922 92.0212 32.8672 92.0764 32.8052 92.1222C32.519 92.3337 31.9561 92.4034 31.5766 92.2552C31.2763 92.1379 31.096 91.7468 31.4129 91.5841C31.5022 91.5375 31.6169 91.5227 31.7277 91.5085C31.7581 91.5045 31.7881 91.5007 31.8173 91.4962C32.0637 91.4582 32.2008 91.3886 32.3224 91.2418C32.4444 91.0945 32.6266 90.9835 32.812 90.8705C32.8887 90.8238 32.966 90.7767 33.0398 90.7266C33.0425 90.7247 33.0451 90.723 33.0477 90.7214C33.049 90.7205 33.0503 90.7197 33.0517 90.7189C32.8015 90.5743 32.5384 90.4395 32.2638 90.3152C32.378 90.3917 32.4489 90.5182 32.501 90.6398C32.621 90.9201 32.2441 91.0286 31.872 91.0286C31.6243 91.0286 31.1025 90.9961 31.138 90.7654C31.1691 90.5621 31.5455 90.3572 31.8112 90.2767C31.9403 90.2376 32.0449 90.235 32.1325 90.2567C30.7717 89.6631 29.1736 89.3434 27.5365 89.3372L27.538 89.3415C27.5901 89.4929 27.6432 89.6475 27.589 89.794C27.4989 90.0372 27.1132 90.1756 26.7491 90.1325C26.4712 90.0997 26.2871 89.9928 26.0957 89.8817C26.0278 89.8422 25.9589 89.8022 25.8846 89.7648C25.715 89.6785 25.5363 89.6949 25.3497 89.7121C25.2551 89.7208 25.1585 89.7297 25.0599 89.7255C24.9333 89.7187 24.812 89.6891 24.7098 89.6398C24.5467 89.6769 24.3862 89.7172 24.2283 89.7606C24.35 89.8893 24.4222 90.026 24.35 90.1245C24.2977 90.1953 24.1837 90.2534 24.0712 90.3108C23.8477 90.4249 23.6298 90.5361 23.9123 90.7371C24.2279 90.9618 24.8415 90.7968 25.1567 90.6515C25.2543 90.6065 25.3406 90.5434 25.4272 90.48C25.6111 90.3453 25.7962 90.2097 26.0938 90.2464C26.444 90.2898 26.813 90.6067 27.013 90.784C27.4919 91.2089 26.8091 91.327 26.1856 91.4348C25.9229 91.4802 25.6708 91.5238 25.5204 91.5878L25.509 91.5927C25.3123 91.6763 25.0202 91.8006 24.9124 91.9381C24.8152 92.0616 24.8532 92.1399 24.8987 92.2339C24.9211 92.28 24.9453 92.3299 24.9562 92.3908C25.0089 92.6868 24.7475 92.8165 24.4252 92.9766C24.4046 92.9868 24.3837 92.9972 24.3627 93.0077C23.9125 93.2344 23.9539 93.3786 24.0374 93.6687C24.0475 93.7041 24.0584 93.7417 24.069 93.7819C24.1342 94.0285 24.048 94.272 23.6221 94.1196C23.5211 94.0833 23.4413 94.0312 23.3617 93.9791C23.2622 93.9141 23.1629 93.8492 23.0224 93.8153C22.8302 93.7673 22.6057 93.7822 22.4057 93.7959C21.9264 93.8287 21.479 93.9483 21.6138 94.3171C21.7189 94.604 22.1947 94.9566 22.6565 94.9968C22.9293 95.0208 23.1391 94.9321 23.3505 94.8427C23.5162 94.7727 23.683 94.7022 23.8821 94.6851C24.0483 94.6708 24.1846 94.7039 24.3272 94.7385C24.3925 94.7544 24.4592 94.7706 24.5308 94.7827C24.6847 94.8086 24.8239 94.8049 24.9671 94.8011C25.0547 94.7987 25.1439 94.7964 25.239 94.8007C25.378 94.8071 25.5055 94.8321 25.6253 94.8692C25.6241 94.8518 25.6235 94.8339 25.6235 94.8156C25.6235 94.149 26.4521 93.6086 27.4743 93.6086C28.4965 93.6086 29.3252 94.149 29.3252 94.8156C29.3252 95.4823 28.4965 95.5489 27.4743 95.5489C27.3436 95.5489 27.2161 95.5478 27.0931 95.5445C27.1706 95.5716 27.25 95.5986 27.3301 95.6259C27.9843 95.8483 28.688 96.0877 28.8514 96.5363C29.0098 96.9699 28.8947 97.4695 28.5104 97.8406C28.2804 98.0636 27.9665 98.2337 27.6525 98.4039C27.431 98.524 27.2095 98.644 27.0174 98.7826C26.5473 99.1223 26.1989 99.5662 26.0925 100.02C26.0828 100.061 26.0796 100.118 26.0761 100.18C26.0753 100.193 26.0745 100.206 26.0737 100.22Z" fill="#96D2E5"/>
<path fill-rule="evenodd" clip-rule="evenodd" d="M19.5794 94.1482C19.5225 94.6725 19.5337 95.0213 19.5812 95.4996C19.653 96.2235 21.0027 99.8156 27.5424 99.8156C30.8101 99.8156 32.79 98.7808 33.9546 97.7346C34.5414 97.2075 34.93 96.6697 35.1734 96.2424C35.2951 96.0287 35.3795 95.8444 35.4336 95.7055C35.4835 95.5777 35.5004 95.5075 35.5039 95.4926C35.5046 95.4899 35.5048 95.4891 35.5047 95.49C35.5541 95.074 35.5522 94.6846 35.5047 94.1434C35.2935 92.8407 33.5064 89.8156 27.5424 89.8156C21.5711 89.8156 19.787 92.8482 19.5794 94.1482ZM18.5895 94.006C18.8801 92.1224 21.1724 88.8156 27.5424 88.8156C33.9124 88.8156 36.2047 92.1224 36.4953 94.006C36.497 94.0166 36.4983 94.0272 36.4992 94.0379C36.5522 94.6323 36.5582 95.0984 36.4977 95.6079C36.4832 95.7302 36.4328 95.8957 36.3653 96.069C36.293 96.2543 36.1875 96.4824 36.0423 96.7373C35.7518 97.2474 35.298 97.8722 34.6229 98.4786C33.2637 99.6995 31.0417 100.816 27.5424 100.816C20.5481 100.816 18.7143 96.8909 18.5861 95.5983C18.5331 95.0643 18.5191 94.6425 18.5866 94.0277C18.5874 94.0205 18.5884 94.0132 18.5895 94.006ZM26.2695 94.6772C26.3423 94.7174 26.425 94.7552 26.5179 94.7895C26.8125 94.8983 27.1719 94.9573 27.5424 94.9573C27.9129 94.9573 28.2723 94.8983 28.5669 94.7895C28.6598 94.7552 28.7425 94.7174 28.8153 94.6772C28.7604 94.6526 28.6977 94.6284 28.6267 94.6053C28.3237 94.5066 27.9399 94.4523 27.5424 94.4523C27.1449 94.4523 26.7611 94.5066 26.4581 94.6053C26.3871 94.6284 26.3244 94.6526 26.2695 94.6772ZM29.3272 93.8137C29.1995 93.7493 29.0668 93.6969 28.9363 93.6544C28.5125 93.5164 28.0206 93.4523 27.5424 93.4523C27.0642 93.4523 26.5723 93.5164 26.1484 93.6544C26.018 93.6969 25.8853 93.7493 25.7576 93.8137C25.6688 93.6746 25.5131 93.5823 25.3358 93.5823C25.0596 93.5823 24.8358 93.8061 24.8358 94.0823C24.8358 94.4039 24.9302 94.6935 25.095 94.9401C25.3504 95.3226 25.7534 95.5733 26.1716 95.7276C26.5946 95.8838 27.074 95.9573 27.5424 95.9573C28.0108 95.9573 28.4902 95.8838 28.9133 95.7276C29.3314 95.5733 29.7344 95.3226 29.9899 94.9401C30.1546 94.6935 30.249 94.4039 30.249 94.0823C30.249 93.8061 30.0252 93.5823 29.749 93.5823C29.5717 93.5823 29.416 93.6746 29.3272 93.8137Z" fill="#735A44"/>
<path d="M79.9076 94.8156C79.9076 97.8532 76.1319 100.316 71.4743 100.316C66.8167 100.316 63.041 97.8532 63.041 94.8156C63.041 91.7781 66.8167 89.3157 71.4743 89.3157C76.1319 89.3157 79.9076 91.7781 79.9076 94.8156ZM69.6235 94.8156C69.6235 95.4823 70.4521 95.5489 71.4743 95.5489C72.4965 95.5489 73.3252 95.4823 73.3252 94.8156C73.3252 94.149 72.4965 93.6086 71.4743 93.6086C70.4521 93.6086 69.6235 94.149 69.6235 94.8156Z" fill="#50A45A"/>
<path d="M63.3636 93.3794C63.1686 93.8475 63.07 94.3305 63.0703 94.8155C63.0703 97.204 65.4252 99.2402 68.7006 99.9904C68.6971 99.9876 68.6971 99.9844 68.6971 99.9816C68.5471 99.5942 68.4381 99.2006 68.371 98.8035C68.3623 98.7542 68.3551 98.7046 68.3478 98.655C68.3054 98.364 68.2629 98.0726 67.9298 97.8512C67.7841 97.7531 67.6134 97.6813 67.4449 97.6104C67.1721 97.4956 66.9053 97.3833 66.7602 97.1661C66.6091 96.9396 66.6295 96.691 66.6499 96.4432C66.6731 96.1612 66.6962 95.8802 66.4665 95.634C66.2361 95.387 65.8676 95.2941 65.4999 95.2014C65.0917 95.0985 64.6846 94.9958 64.4688 94.6828C64.3045 94.4433 64.1003 94.2233 63.8969 94.0043C63.7073 93.8002 63.5185 93.5969 63.3636 93.3794Z" fill="#96D2E5"/>
<path d="M70.0737 100.22C70.5365 100.271 71.005 100.296 71.4744 100.296C72.7534 100.296 74.0155 100.106 75.1642 99.739C76.313 99.3722 77.318 98.8391 78.1026 98.1803C77.9912 97.8992 77.9218 97.6117 77.8951 97.3219C77.8892 97.2693 77.8849 97.2173 77.8806 97.1658C77.8648 96.9752 77.8495 96.7911 77.7533 96.6023C77.6216 96.3422 77.5318 96.1484 77.5406 95.8683C77.5595 95.2477 77.0297 95.3084 76.3974 95.3808C76.2239 95.4007 76.0426 95.4215 75.8628 95.4293C75.0132 95.4653 74.2258 95.1915 73.8494 94.6871C73.4581 94.1624 73.7132 93.7573 74.3177 93.3862C74.4805 93.2864 74.6007 93.1694 74.72 93.0531C74.8297 92.9463 74.9387 92.8401 75.0793 92.7488C75.3392 92.5795 75.7244 92.5405 76.0811 92.5043C76.1413 92.4982 76.2007 92.4922 76.2585 92.4856C76.3064 92.4802 76.3544 92.4745 76.4027 92.4687C76.7099 92.4319 77.0248 92.3943 77.3331 92.4436C77.6018 92.4876 77.7803 92.5957 77.9636 92.7067C78.0589 92.7644 78.1555 92.8229 78.2667 92.8735C78.7711 93.1031 78.9619 92.9201 79.1674 92.723C79.1832 92.7078 79.1991 92.6926 79.2153 92.6774C79.0955 92.4942 78.9605 92.3153 78.8108 92.1416C78.6055 92.2675 78.2681 92.4028 78.2055 92.1533C78.1969 92.1193 78.1923 92.0874 78.1879 92.057C78.1742 91.9616 78.1626 91.8806 78.0365 91.7953C77.9101 91.7144 77.74 91.6692 77.5629 91.6695C77.272 91.6693 77.1226 91.8195 76.9776 91.9653C76.922 92.0212 76.8672 92.0764 76.8052 92.1222C76.519 92.3337 75.9561 92.4034 75.5766 92.2552C75.2763 92.1379 75.096 91.7468 75.4129 91.5841C75.5022 91.5375 75.6169 91.5227 75.7277 91.5085C75.7581 91.5045 75.7881 91.5007 75.8173 91.4962C76.0637 91.4582 76.2008 91.3886 76.3224 91.2418C76.4444 91.0945 76.6266 90.9835 76.812 90.8705C76.8887 90.8238 76.966 90.7767 77.0398 90.7266C77.0425 90.7247 77.0451 90.723 77.0477 90.7214C77.049 90.7205 77.0503 90.7197 77.0517 90.7189C76.8015 90.5743 76.5384 90.4395 76.2638 90.3152C76.378 90.3917 76.4489 90.5182 76.501 90.6398C76.621 90.9201 76.2441 91.0286 75.872 91.0286C75.6243 91.0286 75.1025 90.9961 75.138 90.7654C75.1691 90.5621 75.5455 90.3572 75.8112 90.2767C75.9403 90.2376 76.0449 90.235 76.1325 90.2567C74.7717 89.6631 73.1736 89.3434 71.5365 89.3372L71.538 89.3415C71.5901 89.4929 71.6432 89.6475 71.589 89.794C71.4989 90.0372 71.1132 90.1756 70.7491 90.1325C70.4712 90.0997 70.2871 89.9928 70.0957 89.8817C70.0278 89.8422 69.9589 89.8022 69.8846 89.7648C69.715 89.6785 69.5363 89.6949 69.3497 89.7121C69.2551 89.7208 69.1585 89.7297 69.0599 89.7255C68.9333 89.7187 68.812 89.6891 68.7098 89.6398C68.5467 89.6769 68.3862 89.7172 68.2283 89.7606C68.35 89.8893 68.4222 90.026 68.35 90.1245C68.2977 90.1953 68.1837 90.2534 68.0712 90.3108C67.8477 90.4249 67.6298 90.5361 67.9123 90.7371C68.2279 90.9618 68.8415 90.7968 69.1567 90.6515C69.2543 90.6065 69.3406 90.5434 69.4272 90.48C69.6111 90.3453 69.7962 90.2097 70.0938 90.2464C70.444 90.2898 70.813 90.6067 71.013 90.784C71.4919 91.2089 70.8091 91.327 70.1856 91.4348C69.9229 91.4802 69.6708 91.5238 69.5204 91.5878L69.509 91.5927C69.3123 91.6763 69.0202 91.8006 68.9124 91.9381C68.8152 92.0616 68.8532 92.1399 68.8987 92.2339C68.9211 92.28 68.9453 92.3299 68.9562 92.3908C69.0089 92.6868 68.7475 92.8165 68.4252 92.9766C68.4046 92.9868 68.3837 92.9972 68.3627 93.0077C67.9125 93.2344 67.9539 93.3786 68.0374 93.6687C68.0475 93.7041 68.0584 93.7417 68.069 93.7819C68.1342 94.0285 68.048 94.272 67.6221 94.1196C67.5211 94.0833 67.4413 94.0312 67.3617 93.9791C67.2622 93.9141 67.1629 93.8492 67.0224 93.8153C66.8302 93.7673 66.6057 93.7822 66.4057 93.7959C65.9264 93.8287 65.479 93.9483 65.6138 94.3171C65.7189 94.604 66.1947 94.9566 66.6565 94.9968C66.9293 95.0208 67.1391 94.9321 67.3505 94.8427C67.5162 94.7727 67.683 94.7022 67.8821 94.6851C68.0483 94.6708 68.1846 94.7039 68.3272 94.7385C68.3925 94.7544 68.4592 94.7706 68.5308 94.7827C68.6847 94.8086 68.8239 94.8049 68.9671 94.8011C69.0547 94.7987 69.1439 94.7964 69.239 94.8007C69.378 94.8071 69.5055 94.8321 69.6253 94.8692C69.6241 94.8518 69.6235 94.8339 69.6235 94.8156C69.6235 94.149 70.4521 93.6086 71.4743 93.6086C72.4965 93.6086 73.3252 94.149 73.3252 94.8156C73.3252 95.4823 72.4965 95.5489 71.4743 95.5489C71.3436 95.5489 71.2161 95.5478 71.0931 95.5445C71.1706 95.5716 71.25 95.5986 71.3301 95.6259C71.9843 95.8483 72.688 96.0877 72.8514 96.5363C73.0098 96.9699 72.8947 97.4695 72.5104 97.8406C72.2804 98.0636 71.9665 98.2337 71.6525 98.4039C71.431 98.524 71.2095 98.644 71.0174 98.7826C70.5473 99.1223 70.1989 99.5662 70.0925 100.02C70.0828 100.061 70.0796 100.118 70.0761 100.18C70.0753 100.193 70.0745 100.206 70.0737 100.22Z" fill="#96D2E5"/>
<path fill-rule="evenodd" clip-rule="evenodd" d="M63.5794 94.1482C63.5225 94.6725 63.5337 95.0213 63.5812 95.4996C63.653 96.2235 65.0027 99.8156 71.5424 99.8156C74.8101 99.8156 76.79 98.7808 77.9546 97.7346C78.5414 97.2075 78.93 96.6697 79.1734 96.2424C79.2951 96.0287 79.3795 95.8444 79.4336 95.7055C79.4835 95.5777 79.5004 95.5075 79.5039 95.4926C79.5046 95.4899 79.5048 95.4891 79.5047 95.49C79.5541 95.074 79.5522 94.6846 79.5047 94.1434C79.2935 92.8407 77.5064 89.8156 71.5424 89.8156C65.5711 89.8156 63.787 92.8482 63.5794 94.1482ZM62.5895 94.006C62.8801 92.1224 65.1724 88.8156 71.5424 88.8156C77.9124 88.8156 80.2047 92.1224 80.4953 94.006C80.497 94.0166 80.4983 94.0272 80.4992 94.0379C80.5522 94.6323 80.5582 95.0984 80.4977 95.6079C80.4832 95.7302 80.4328 95.8957 80.3653 96.069C80.293 96.2543 80.1875 96.4824 80.0423 96.7373C79.7518 97.2474 79.298 97.8722 78.6229 98.4786C77.2637 99.6995 75.0417 100.816 71.5424 100.816C64.5481 100.816 62.7143 96.8909 62.5861 95.5983C62.5331 95.0643 62.5191 94.6425 62.5866 94.0277C62.5874 94.0205 62.5884 94.0132 62.5895 94.006ZM70.2695 94.6772C70.3423 94.7174 70.425 94.7552 70.5179 94.7895C70.8125 94.8983 71.1719 94.9573 71.5424 94.9573C71.9129 94.9573 72.2723 94.8983 72.5669 94.7895C72.6598 94.7552 72.7425 94.7174 72.8153 94.6772C72.7604 94.6526 72.6977 94.6284 72.6267 94.6053C72.3237 94.5066 71.9399 94.4523 71.5424 94.4523C71.1449 94.4523 70.7611 94.5066 70.4581 94.6053C70.3871 94.6284 70.3244 94.6526 70.2695 94.6772ZM73.3272 93.8137C73.1995 93.7493 73.0668 93.6969 72.9363 93.6544C72.5125 93.5164 72.0206 93.4523 71.5424 93.4523C71.0642 93.4523 70.5723 93.5164 70.1484 93.6544C70.018 93.6969 69.8853 93.7493 69.7576 93.8137C69.6688 93.6746 69.5131 93.5823 69.3358 93.5823C69.0596 93.5823 68.8358 93.8061 68.8358 94.0823C68.8358 94.4039 68.9302 94.6935 69.095 94.9401C69.3504 95.3226 69.7534 95.5733 70.1716 95.7276C70.5946 95.8838 71.074 95.9573 71.5424 95.9573C72.0108 95.9573 72.4902 95.8838 72.9133 95.7276C73.3314 95.5733 73.7344 95.3226 73.9899 94.9401C74.1546 94.6935 74.249 94.4039 74.249 94.0823C74.249 93.8061 74.0252 93.5823 73.749 93.5823C73.5717 93.5823 73.416 93.6746 73.3272 93.8137Z" fill="#735A44"/>
<path d="M56.9233 82.8157C56.9233 85.3009 53.5918 87.3156 49.4822 87.3156C45.3725 87.3156 42.041 85.3009 42.041 82.8157C42.041 80.3304 45.3725 78.3157 49.4822 78.3157C53.5918 78.3157 56.9233 80.3304 56.9233 82.8157ZM47.8491 82.8157C47.8491 83.3611 48.5802 83.4156 49.4822 83.4156C50.3841 83.4156 51.1153 83.3611 51.1153 82.8157C51.1153 82.2702 50.3841 81.828 49.4822 81.828C48.5802 81.828 47.8491 82.2702 47.8491 82.8157Z" fill="#50A45A"/>
<path d="M42.3257 81.6405C42.1536 82.0235 42.0666 82.4187 42.0669 82.8156C42.0669 84.7698 44.1447 86.4358 47.0348 87.0496C47.0317 87.0472 47.0317 87.0447 47.0317 87.0423C46.8993 86.7254 46.8032 86.4033 46.744 86.0784C46.7363 86.0381 46.7299 85.9975 46.7235 85.9569C46.6861 85.7189 46.6486 85.4804 46.3547 85.2993C46.2261 85.219 46.0755 85.1603 45.9269 85.1023C45.6862 85.0083 45.4507 84.9165 45.3227 84.7387C45.1894 84.5534 45.2074 84.35 45.2254 84.1472C45.2458 83.9166 45.2662 83.6867 45.0635 83.4852C44.8602 83.2831 44.5351 83.2071 44.2107 83.1312C43.8505 83.047 43.4913 82.9631 43.3009 82.707C43.1559 82.511 42.9757 82.331 42.7962 82.1518C42.629 81.9848 42.4624 81.8185 42.3257 81.6405Z" fill="#96D2E5"/>
<path d="M48.2463 87.2373C48.6547 87.2789 49.0681 87.2999 49.4822 87.2999C50.6108 87.2999 51.7244 87.1439 52.738 86.8438C53.7516 86.5438 54.6384 86.1076 55.3307 85.5686C55.2324 85.3386 55.1711 85.1034 55.1476 84.8662C55.1424 84.8232 55.1386 84.7806 55.1348 84.7385C55.1208 84.5826 55.1073 84.4319 55.0225 84.2774C54.9062 84.0647 54.8271 83.9061 54.8348 83.6769C54.8514 83.1691 54.384 83.2188 53.8261 83.2781C53.673 83.2943 53.513 83.3113 53.3544 83.3177C52.6048 83.3472 51.91 83.1232 51.5778 82.7105C51.2326 82.2812 51.4577 81.9498 51.9911 81.6461C52.1348 81.5645 52.2408 81.4687 52.3461 81.3736C52.4428 81.2862 52.539 81.1993 52.6631 81.1246C52.8924 80.9861 53.2323 80.9541 53.547 80.9245C53.6001 80.9195 53.6525 80.9146 53.7036 80.9092C53.7458 80.9048 53.7882 80.9001 53.8307 80.8954C54.1019 80.8653 54.3797 80.8345 54.6517 80.8749C54.8888 80.9109 55.0463 80.9993 55.2081 81.0901C55.2921 81.1373 55.3774 81.1852 55.4755 81.2267C55.9206 81.4145 56.0889 81.2648 56.2702 81.1035C56.2842 81.0911 56.2982 81.0786 56.3124 81.0662C56.2068 80.9163 56.0876 80.7699 55.9556 80.6278C55.7744 80.7308 55.4767 80.8415 55.4214 80.6374C55.4139 80.6096 55.4098 80.5835 55.406 80.5586C55.3939 80.4805 55.3836 80.4143 55.2724 80.3445C55.1609 80.2783 55.0107 80.2413 54.8545 80.2415C54.5978 80.2413 54.466 80.3643 54.338 80.4836C54.289 80.5293 54.2406 80.5744 54.1859 80.6119C53.9334 80.785 53.4367 80.842 53.1018 80.7208C52.8369 80.6248 52.6778 80.3048 52.9574 80.1717C53.0362 80.1335 53.1374 80.1214 53.2352 80.1098C53.262 80.1066 53.2885 80.1034 53.3143 80.0997C53.5317 80.0687 53.6526 80.0117 53.7599 79.8916C53.8676 79.771 54.0283 79.6802 54.1919 79.5878C54.2596 79.5496 54.3278 79.5111 54.393 79.47C54.3953 79.4685 54.3976 79.4671 54.3999 79.4658C54.4011 79.4651 54.4022 79.4644 54.4034 79.4637C54.1827 79.3454 53.9505 79.2352 53.7082 79.1335C53.809 79.1961 53.8716 79.2995 53.9175 79.399C54.0233 79.6284 53.6908 79.7171 53.3625 79.7171C53.1439 79.7171 52.6836 79.6905 52.7148 79.5018C52.7423 79.3355 53.0744 79.1678 53.3088 79.1019C53.4228 79.07 53.5151 79.0678 53.5923 79.0856C52.3917 78.5999 50.9815 78.3383 49.5371 78.3333L49.5384 78.3368C49.5843 78.4607 49.6312 78.5871 49.5834 78.707C49.5039 78.906 49.1636 79.0193 48.8423 78.984C48.5971 78.9571 48.4347 78.8697 48.2658 78.7787C48.2058 78.7465 48.1451 78.7138 48.0795 78.6832C47.9298 78.6125 47.7722 78.626 47.6075 78.64C47.5241 78.6471 47.4388 78.6544 47.3519 78.6509C47.2401 78.6454 47.1331 78.6212 47.0429 78.5809C46.899 78.6112 46.7573 78.6442 46.6181 78.6797C46.7254 78.785 46.7891 78.8969 46.7254 78.9775C46.6793 79.0353 46.5787 79.0829 46.4794 79.1299C46.2822 79.2232 46.09 79.3142 46.3392 79.4787C46.6177 79.6625 47.1591 79.5275 47.4372 79.4086C47.5234 79.3718 47.5995 79.3201 47.6759 79.2683C47.8382 79.1581 48.0015 79.0472 48.2641 79.0772C48.5731 79.1127 48.8987 79.3719 49.0752 79.517C49.4977 79.8647 48.8953 79.9613 48.3451 80.0495C48.1133 80.0867 47.8908 80.1224 47.7582 80.1747L47.7481 80.1787C47.5746 80.2471 47.3168 80.3488 47.2217 80.4613C47.136 80.5623 47.1694 80.6264 47.2096 80.7033C47.2293 80.7411 47.2507 80.7819 47.2603 80.8317C47.3068 81.0738 47.0762 81.18 46.7918 81.311C46.7736 81.3193 46.7552 81.3278 46.7366 81.3364C46.3394 81.5219 46.376 81.6398 46.4496 81.8773C46.4586 81.9062 46.4681 81.937 46.4775 81.9698C46.535 82.1716 46.4589 82.3709 46.0831 82.2461C45.994 82.2164 45.9237 82.1738 45.8534 82.1312C45.7657 82.078 45.678 82.0249 45.554 81.9972C45.3845 81.9579 45.1864 81.9701 45.0099 81.9813C44.5869 82.0081 44.1922 82.106 44.3112 82.4078C44.4039 82.6425 44.8237 82.9309 45.2312 82.9639C45.4719 82.9835 45.657 82.911 45.8435 82.8378C45.9898 82.7805 46.1369 82.7228 46.3126 82.7088C46.4593 82.6971 46.5795 82.7242 46.7053 82.7526C46.763 82.7655 46.8218 82.7788 46.8849 82.7887C47.0208 82.8099 47.1436 82.8068 47.2699 82.8037C47.3473 82.8018 47.426 82.7999 47.5098 82.8034C47.6325 82.8087 47.7451 82.8292 47.8508 82.8595C47.8497 82.8452 47.8491 82.8306 47.8491 82.8157C47.8491 82.2702 48.5802 81.828 49.4822 81.828C50.3841 81.828 51.1153 82.2702 51.1153 82.8157C51.1153 83.3611 50.3841 83.4156 49.4822 83.4156C49.3669 83.4156 49.2545 83.4147 49.1459 83.412C49.2143 83.4342 49.2843 83.4563 49.355 83.4785C49.9322 83.6606 50.5531 83.8564 50.6973 84.2235C50.8371 84.5783 50.7355 84.987 50.3964 85.2906C50.1935 85.473 49.9165 85.6123 49.6394 85.7515C49.444 85.8497 49.2485 85.948 49.079 86.0614C48.6642 86.3393 48.3568 86.7025 48.2629 87.0739C48.2544 87.1077 48.2515 87.1537 48.2484 87.2043C48.2478 87.2151 48.2471 87.2262 48.2463 87.2373Z" fill="#96D2E5"/>
<path fill-rule="evenodd" clip-rule="evenodd" d="M42.5737 82.2868C42.5252 82.7031 42.5347 82.9788 42.5758 83.3624C42.6308 83.8769 43.7659 86.8156 49.5422 86.8156C52.4222 86.8156 54.1597 85.9697 55.1749 85.1241C55.6864 84.698 56.0232 84.2649 56.2328 83.9238C56.3377 83.753 56.4096 83.6069 56.4552 83.4985C56.4896 83.4168 56.5037 83.3692 56.5084 83.3532C56.5107 83.3454 56.5108 83.3452 56.5099 83.3521C56.5519 83.0244 56.5509 82.7163 56.5099 82.2818C56.3324 81.2862 54.8047 78.8156 49.5422 78.8156C44.2709 78.8156 42.7469 81.2945 42.5737 82.2868ZM41.5854 82.1335C41.8542 80.5184 43.9296 77.8156 49.5422 77.8156C55.1549 77.8156 57.2303 80.5184 57.4991 82.1335C57.501 82.1449 57.5025 82.1563 57.5036 82.1678C57.5509 82.6599 57.5567 83.0507 57.5018 83.4791C57.4869 83.5954 57.4375 83.7424 57.377 83.8863C57.311 84.0432 57.2155 84.2345 57.0849 84.4471C56.8234 84.8729 56.4169 85.391 55.8149 85.8924C54.6032 86.9017 52.6332 87.8156 49.5422 87.8156C43.3767 87.8156 41.7029 84.6042 41.5814 83.4688C41.534 83.0252 41.5212 82.6707 41.5821 82.1568C41.583 82.149 41.5841 82.1413 41.5854 82.1335ZM48.6683 82.712C48.9203 82.7951 49.2261 82.8406 49.5422 82.8406C49.8584 82.8406 50.1642 82.7951 50.4161 82.712C50.1651 82.6457 49.8591 82.6093 49.5422 82.6093C49.2254 82.6093 48.9194 82.6457 48.6683 82.712ZM51.1045 81.8964C50.9965 81.8475 50.8865 81.808 50.7801 81.7759C50.4025 81.6619 49.9658 81.6093 49.5422 81.6093C49.1186 81.6093 48.6819 81.6619 48.3043 81.7759C48.1979 81.808 48.0879 81.8475 47.98 81.8963C47.8883 81.7859 47.75 81.7156 47.5952 81.7156C47.3191 81.7156 47.0952 81.9395 47.0952 82.2156C47.0952 82.5063 47.1877 82.7657 47.3439 82.9825C47.5832 83.3147 47.9532 83.5243 48.3235 83.6511C48.7009 83.7803 49.127 83.8406 49.5422 83.8406C49.9575 83.8406 50.3836 83.7803 50.761 83.6511C51.1313 83.5243 51.5013 83.3147 51.7406 82.9825C51.8968 82.7657 51.9893 82.5063 51.9893 82.2156C51.9893 81.9395 51.7654 81.7156 51.4893 81.7156C51.3345 81.7156 51.1962 81.7859 51.1045 81.8964Z" fill="#735A44"/>
<path d="M37.9233 82.8157C37.9233 85.3009 34.5918 87.3156 30.4822 87.3156C26.3725 87.3156 23.041 85.3009 23.041 82.8157C23.041 80.3304 26.3725 78.3157 30.4822 78.3157C34.5918 78.3157 37.9233 80.3304 37.9233 82.8157ZM28.8491 82.8157C28.8491 83.3611 29.5802 83.4156 30.4822 83.4156C31.3841 83.4156 32.1153 83.3611 32.1153 82.8157C32.1153 82.2702 31.3841 81.828 30.4822 81.828C29.5802 81.828 28.8491 82.2702 28.8491 82.8157Z" fill="#50A45A"/>
<path d="M23.3257 81.6405C23.1536 82.0235 23.0666 82.4187 23.0669 82.8156C23.0669 84.7698 25.1447 86.4358 28.0348 87.0496C28.0317 87.0472 28.0317 87.0447 28.0317 87.0423C27.8993 86.7254 27.8032 86.4033 27.744 86.0784C27.7363 86.0381 27.7299 85.9975 27.7235 85.9569C27.6861 85.7189 27.6486 85.4804 27.3547 85.2993C27.2261 85.219 27.0755 85.1603 26.9269 85.1023C26.6862 85.0083 26.4507 84.9165 26.3227 84.7387C26.1894 84.5534 26.2074 84.35 26.2254 84.1472C26.2458 83.9166 26.2662 83.6867 26.0635 83.4852C25.8602 83.2831 25.5351 83.2071 25.2107 83.1312C24.8505 83.047 24.4913 82.9631 24.3009 82.707C24.1559 82.511 23.9757 82.331 23.7962 82.1518C23.629 81.9848 23.4624 81.8185 23.3257 81.6405Z" fill="#96D2E5"/>
<path d="M29.2463 87.2373C29.6547 87.2789 30.0681 87.2999 30.4822 87.2999C31.6108 87.2999 32.7244 87.1439 33.738 86.8438C34.7516 86.5438 35.6384 86.1076 36.3307 85.5686C36.2324 85.3386 36.1711 85.1034 36.1476 84.8662C36.1424 84.8232 36.1386 84.7806 36.1348 84.7385C36.1208 84.5826 36.1073 84.4319 36.0225 84.2774C35.9062 84.0647 35.8271 83.9061 35.8348 83.6769C35.8514 83.1691 35.384 83.2188 34.8261 83.2781C34.673 83.2943 34.513 83.3113 34.3544 83.3177C33.6048 83.3472 32.91 83.1232 32.5778 82.7105C32.2326 82.2812 32.4577 81.9498 32.9911 81.6461C33.1348 81.5645 33.2408 81.4687 33.3461 81.3736C33.4428 81.2862 33.539 81.1993 33.6631 81.1246C33.8924 80.9861 34.2323 80.9541 34.547 80.9245C34.6001 80.9195 34.6525 80.9146 34.7036 80.9092C34.7458 80.9048 34.7882 80.9001 34.8307 80.8954C35.1019 80.8653 35.3797 80.8345 35.6517 80.8749C35.8888 80.9109 36.0463 80.9993 36.2081 81.0901C36.2921 81.1373 36.3774 81.1852 36.4755 81.2267C36.9206 81.4145 37.0889 81.2648 37.2702 81.1035C37.2842 81.0911 37.2982 81.0786 37.3124 81.0662C37.2068 80.9163 37.0876 80.7699 36.9556 80.6278C36.7744 80.7308 36.4767 80.8415 36.4214 80.6374C36.4139 80.6096 36.4098 80.5835 36.406 80.5586C36.3939 80.4805 36.3836 80.4143 36.2724 80.3445C36.1609 80.2783 36.0107 80.2413 35.8545 80.2415C35.5978 80.2413 35.466 80.3643 35.338 80.4836C35.289 80.5293 35.2406 80.5744 35.1859 80.6119C34.9334 80.785 34.4367 80.842 34.1018 80.7208C33.8369 80.6248 33.6778 80.3048 33.9574 80.1717C34.0362 80.1335 34.1374 80.1214 34.2352 80.1098C34.262 80.1066 34.2885 80.1034 34.3143 80.0997C34.5317 80.0687 34.6526 80.0117 34.7599 79.8916C34.8676 79.771 35.0283 79.6802 35.1919 79.5878C35.2596 79.5496 35.3278 79.5111 35.393 79.47C35.3953 79.4685 35.3976 79.4671 35.3999 79.4658C35.4011 79.4651 35.4022 79.4644 35.4034 79.4637C35.1827 79.3454 34.9505 79.2352 34.7082 79.1335C34.809 79.1961 34.8716 79.2995 34.9175 79.399C35.0233 79.6284 34.6908 79.7171 34.3625 79.7171C34.1439 79.7171 33.6836 79.6905 33.7148 79.5018C33.7423 79.3355 34.0744 79.1678 34.3088 79.1019C34.4228 79.07 34.5151 79.0678 34.5923 79.0856C33.3917 78.5999 31.9815 78.3383 30.5371 78.3333L30.5384 78.3368C30.5843 78.4607 30.6312 78.5871 30.5834 78.707C30.5039 78.906 30.1636 79.0193 29.8423 78.984C29.5971 78.9571 29.4347 78.8697 29.2658 78.7787C29.2058 78.7465 29.1451 78.7138 29.0795 78.6832C28.9298 78.6125 28.7722 78.626 28.6075 78.64C28.5241 78.6471 28.4388 78.6544 28.3519 78.6509C28.2401 78.6454 28.1331 78.6212 28.0429 78.5809C27.899 78.6112 27.7573 78.6442 27.6181 78.6797C27.7254 78.785 27.7891 78.8969 27.7254 78.9775C27.6793 79.0353 27.5787 79.0829 27.4794 79.1299C27.2822 79.2232 27.09 79.3142 27.3392 79.4787C27.6177 79.6625 28.1591 79.5275 28.4372 79.4086C28.5234 79.3718 28.5995 79.3201 28.6759 79.2683C28.8382 79.1581 29.0015 79.0472 29.2641 79.0772C29.5731 79.1127 29.8987 79.3719 30.0752 79.517C30.4977 79.8647 29.8953 79.9613 29.3451 80.0495C29.1133 80.0867 28.8908 80.1224 28.7582 80.1747L28.7481 80.1787C28.5746 80.2471 28.3168 80.3488 28.2217 80.4613C28.136 80.5623 28.1694 80.6264 28.2096 80.7033C28.2293 80.7411 28.2507 80.7819 28.2603 80.8317C28.3068 81.0738 28.0762 81.18 27.7918 81.311C27.7736 81.3193 27.7552 81.3278 27.7366 81.3364C27.3394 81.5219 27.376 81.6398 27.4496 81.8773C27.4586 81.9062 27.4681 81.937 27.4775 81.9698C27.535 82.1716 27.4589 82.3709 27.0831 82.2461C26.994 82.2164 26.9237 82.1738 26.8534 82.1312C26.7657 82.078 26.678 82.0249 26.554 81.9972C26.3845 81.9579 26.1864 81.9701 26.0099 81.9813C25.5869 82.0081 25.1922 82.106 25.3112 82.4078C25.4039 82.6425 25.8237 82.9309 26.2312 82.9639C26.4719 82.9835 26.657 82.911 26.8435 82.8378C26.9898 82.7805 27.1369 82.7228 27.3126 82.7088C27.4593 82.6971 27.5795 82.7242 27.7053 82.7526C27.763 82.7655 27.8218 82.7788 27.8849 82.7887C28.0208 82.8099 28.1436 82.8068 28.2699 82.8037C28.3473 82.8018 28.426 82.7999 28.5098 82.8034C28.6325 82.8087 28.7451 82.8292 28.8508 82.8595C28.8497 82.8452 28.8491 82.8306 28.8491 82.8157C28.8491 82.2702 29.5802 81.828 30.4822 81.828C31.3841 81.828 32.1153 82.2702 32.1153 82.8157C32.1153 83.3611 31.3841 83.4156 30.4822 83.4156C30.3669 83.4156 30.2545 83.4147 30.1459 83.412C30.2143 83.4342 30.2843 83.4563 30.355 83.4785C30.9322 83.6606 31.5531 83.8564 31.6973 84.2235C31.8371 84.5783 31.7355 84.987 31.3964 85.2906C31.1935 85.473 30.9165 85.6123 30.6394 85.7515C30.444 85.8497 30.2485 85.948 30.079 86.0614C29.6642 86.3393 29.3568 86.7025 29.2629 87.0739C29.2544 87.1077 29.2515 87.1537 29.2484 87.2043C29.2478 87.2151 29.2471 87.2262 29.2463 87.2373Z" fill="#96D2E5"/>
<path fill-rule="evenodd" clip-rule="evenodd" d="M23.5737 82.2868C23.5252 82.7031 23.5347 82.9788 23.5758 83.3624C23.6308 83.8769 24.7659 86.8156 30.5422 86.8156C33.4222 86.8156 35.1597 85.9697 36.1749 85.1241C36.6864 84.698 37.0232 84.2649 37.2328 83.9238C37.3377 83.753 37.4096 83.6069 37.4552 83.4985C37.4896 83.4168 37.5037 83.3692 37.5084 83.3532C37.5107 83.3454 37.5108 83.3452 37.5099 83.3521C37.5519 83.0244 37.5509 82.7163 37.5099 82.2818C37.3324 81.2862 35.8047 78.8156 30.5422 78.8156C25.2709 78.8156 23.7469 81.2945 23.5737 82.2868ZM22.5854 82.1335C22.8542 80.5184 24.9296 77.8156 30.5422 77.8156C36.1549 77.8156 38.2303 80.5184 38.4991 82.1335C38.501 82.1449 38.5025 82.1563 38.5036 82.1678C38.5509 82.6599 38.5567 83.0507 38.5018 83.4791C38.4869 83.5954 38.4375 83.7424 38.377 83.8863C38.311 84.0432 38.2155 84.2345 38.0849 84.4471C37.8234 84.8729 37.4169 85.391 36.8149 85.8924C35.6032 86.9017 33.6332 87.8156 30.5422 87.8156C24.3767 87.8156 22.7029 84.6042 22.5814 83.4688C22.534 83.0252 22.5212 82.6707 22.5821 82.1568C22.583 82.149 22.5841 82.1413 22.5854 82.1335ZM29.6683 82.712C29.9203 82.7951 30.2261 82.8406 30.5422 82.8406C30.8584 82.8406 31.1642 82.7951 31.4161 82.712C31.1651 82.6457 30.8591 82.6093 30.5422 82.6093C30.2254 82.6093 29.9194 82.6457 29.6683 82.712ZM32.1045 81.8964C31.9965 81.8475 31.8865 81.808 31.7801 81.7759C31.4025 81.6619 30.9658 81.6093 30.5422 81.6093C30.1186 81.6093 29.6819 81.6619 29.3043 81.7759C29.1979 81.808 29.0879 81.8475 28.98 81.8963C28.8883 81.7859 28.75 81.7156 28.5952 81.7156C28.3191 81.7156 28.0952 81.9395 28.0952 82.2156C28.0952 82.5063 28.1877 82.7657 28.3439 82.9825C28.5832 83.3147 28.9532 83.5243 29.3235 83.6511C29.7009 83.7803 30.127 83.8406 30.5422 83.8406C30.9575 83.8406 31.3836 83.7803 31.761 83.6511C32.1313 83.5243 32.5013 83.3147 32.7406 82.9825C32.8968 82.7657 32.9893 82.5063 32.9893 82.2156C32.9893 81.9395 32.7654 81.7156 32.4893 81.7156C32.3345 81.7156 32.1962 81.7859 32.1045 81.8964Z" fill="#735A44"/>
<path d="M75.9233 82.8157C75.9233 85.3009 72.5918 87.3156 68.4822 87.3156C64.3725 87.3156 61.041 85.3009 61.041 82.8157C61.041 80.3304 64.3725 78.3157 68.4822 78.3157C72.5918 78.3157 75.9233 80.3304 75.9233 82.8157ZM66.8491 82.8157C66.8491 83.3611 67.5802 83.4156 68.4822 83.4156C69.3841 83.4156 70.1153 83.3611 70.1153 82.8157C70.1153 82.2702 69.3841 81.828 68.4822 81.828C67.5802 81.828 66.8491 82.2702 66.8491 82.8157Z" fill="#50A45A"/>
<path d="M61.3257 81.6405C61.1536 82.0235 61.0666 82.4187 61.0669 82.8156C61.0669 84.7698 63.1447 86.4358 66.0348 87.0496C66.0317 87.0472 66.0317 87.0447 66.0317 87.0423C65.8993 86.7254 65.8032 86.4033 65.744 86.0784C65.7363 86.0381 65.7299 85.9975 65.7235 85.9569C65.6861 85.7189 65.6486 85.4804 65.3547 85.2993C65.2261 85.219 65.0755 85.1603 64.9269 85.1023C64.6862 85.0083 64.4507 84.9165 64.3227 84.7387C64.1894 84.5534 64.2074 84.35 64.2254 84.1472C64.2458 83.9166 64.2662 83.6867 64.0635 83.4852C63.8602 83.2831 63.5351 83.2071 63.2107 83.1312C62.8505 83.047 62.4913 82.9631 62.3009 82.707C62.1559 82.511 61.9757 82.331 61.7962 82.1518C61.629 81.9848 61.4624 81.8185 61.3257 81.6405Z" fill="#96D2E5"/>
<path d="M67.2463 87.2373C67.6547 87.2789 68.0681 87.2999 68.4822 87.2999C69.6108 87.2999 70.7244 87.1439 71.738 86.8438C72.7516 86.5438 73.6384 86.1076 74.3307 85.5686C74.2324 85.3386 74.1711 85.1034 74.1476 84.8662C74.1424 84.8232 74.1386 84.7806 74.1348 84.7385C74.1208 84.5826 74.1073 84.4319 74.0225 84.2774C73.9062 84.0647 73.8271 83.9061 73.8348 83.6769C73.8514 83.1691 73.384 83.2188 72.8261 83.2781C72.673 83.2943 72.513 83.3113 72.3544 83.3177C71.6048 83.3472 70.91 83.1232 70.5778 82.7105C70.2326 82.2812 70.4577 81.9498 70.9911 81.6461C71.1348 81.5645 71.2408 81.4687 71.3461 81.3736C71.4428 81.2862 71.539 81.1993 71.6631 81.1246C71.8924 80.9861 72.2323 80.9541 72.547 80.9245C72.6001 80.9195 72.6525 80.9146 72.7036 80.9092C72.7458 80.9048 72.7882 80.9001 72.8307 80.8954C73.1019 80.8653 73.3797 80.8345 73.6517 80.8749C73.8888 80.9109 74.0463 80.9993 74.2081 81.0901C74.2921 81.1373 74.3774 81.1852 74.4755 81.2267C74.9206 81.4145 75.0889 81.2648 75.2702 81.1035C75.2842 81.0911 75.2982 81.0786 75.3124 81.0662C75.2068 80.9163 75.0876 80.7699 74.9556 80.6278C74.7744 80.7308 74.4767 80.8415 74.4214 80.6374C74.4139 80.6096 74.4098 80.5835 74.406 80.5586C74.3939 80.4805 74.3836 80.4143 74.2724 80.3445C74.1609 80.2783 74.0107 80.2413 73.8545 80.2415C73.5978 80.2413 73.466 80.3643 73.338 80.4836C73.289 80.5293 73.2406 80.5744 73.1859 80.6119C72.9334 80.785 72.4367 80.842 72.1018 80.7208C71.8369 80.6248 71.6778 80.3048 71.9574 80.1717C72.0362 80.1335 72.1374 80.1214 72.2352 80.1098C72.262 80.1066 72.2885 80.1034 72.3143 80.0997C72.5317 80.0687 72.6526 80.0117 72.7599 79.8916C72.8676 79.771 73.0283 79.6802 73.1919 79.5878C73.2596 79.5496 73.3278 79.5111 73.393 79.47C73.3953 79.4685 73.3976 79.4671 73.3999 79.4658C73.4011 79.4651 73.4022 79.4644 73.4034 79.4637C73.1827 79.3454 72.9505 79.2352 72.7082 79.1335C72.809 79.1961 72.8716 79.2995 72.9175 79.399C73.0233 79.6284 72.6908 79.7171 72.3625 79.7171C72.1439 79.7171 71.6836 79.6905 71.7148 79.5018C71.7423 79.3355 72.0744 79.1678 72.3088 79.1019C72.4228 79.07 72.5151 79.0678 72.5923 79.0856C71.3917 78.5999 69.9815 78.3383 68.5371 78.3333L68.5384 78.3368C68.5843 78.4607 68.6312 78.5871 68.5834 78.707C68.5039 78.906 68.1636 79.0193 67.8423 78.984C67.5971 78.9571 67.4347 78.8697 67.2658 78.7787C67.2058 78.7465 67.1451 78.7138 67.0795 78.6832C66.9298 78.6125 66.7722 78.626 66.6075 78.64C66.5241 78.6471 66.4388 78.6544 66.3519 78.6509C66.2401 78.6454 66.1331 78.6212 66.0429 78.5809C65.899 78.6112 65.7573 78.6442 65.6181 78.6797C65.7254 78.785 65.7891 78.8969 65.7254 78.9775C65.6793 79.0353 65.5787 79.0829 65.4794 79.1299C65.2822 79.2232 65.09 79.3142 65.3392 79.4787C65.6177 79.6625 66.1591 79.5275 66.4372 79.4086C66.5234 79.3718 66.5995 79.3201 66.6759 79.2683C66.8382 79.1581 67.0015 79.0472 67.2641 79.0772C67.5731 79.1127 67.8987 79.3719 68.0752 79.517C68.4977 79.8647 67.8953 79.9613 67.3451 80.0495C67.1133 80.0867 66.8908 80.1224 66.7582 80.1747L66.7481 80.1787C66.5746 80.2471 66.3168 80.3488 66.2217 80.4613C66.136 80.5623 66.1694 80.6264 66.2096 80.7033C66.2293 80.7411 66.2507 80.7819 66.2603 80.8317C66.3068 81.0738 66.0762 81.18 65.7918 81.311C65.7736 81.3193 65.7552 81.3278 65.7366 81.3364C65.3394 81.5219 65.376 81.6398 65.4496 81.8773C65.4586 81.9062 65.4681 81.937 65.4775 81.9698C65.535 82.1716 65.4589 82.3709 65.0831 82.2461C64.994 82.2164 64.9237 82.1738 64.8534 82.1312C64.7657 82.078 64.678 82.0249 64.554 81.9972C64.3845 81.9579 64.1864 81.9701 64.0099 81.9813C63.5869 82.0081 63.1922 82.106 63.3112 82.4078C63.4039 82.6425 63.8237 82.9309 64.2312 82.9639C64.4719 82.9835 64.657 82.911 64.8435 82.8378C64.9898 82.7805 65.1369 82.7228 65.3126 82.7088C65.4593 82.6971 65.5795 82.7242 65.7053 82.7526C65.763 82.7655 65.8218 82.7788 65.8849 82.7887C66.0208 82.8099 66.1436 82.8068 66.2699 82.8037C66.3473 82.8018 66.426 82.7999 66.5098 82.8034C66.6325 82.8087 66.7451 82.8292 66.8508 82.8595C66.8497 82.8452 66.8491 82.8306 66.8491 82.8157C66.8491 82.2702 67.5802 81.828 68.4822 81.828C69.3841 81.828 70.1153 82.2702 70.1153 82.8157C70.1153 83.3611 69.3841 83.4156 68.4822 83.4156C68.3669 83.4156 68.2545 83.4147 68.1459 83.412C68.2143 83.4342 68.2843 83.4563 68.355 83.4785C68.9322 83.6606 69.5531 83.8564 69.6973 84.2235C69.8371 84.5783 69.7355 84.987 69.3964 85.2906C69.1935 85.473 68.9165 85.6123 68.6394 85.7515C68.444 85.8497 68.2485 85.948 68.079 86.0614C67.6642 86.3393 67.3568 86.7025 67.2629 87.0739C67.2544 87.1077 67.2515 87.1537 67.2484 87.2043C67.2478 87.2151 67.2471 87.2262 67.2463 87.2373Z" fill="#96D2E5"/>
<path fill-rule="evenodd" clip-rule="evenodd" d="M61.5737 82.2868C61.5252 82.7031 61.5347 82.9788 61.5758 83.3624C61.6308 83.8769 62.7659 86.8156 68.5422 86.8156C71.4222 86.8156 73.1597 85.9697 74.1749 85.1241C74.6864 84.698 75.0232 84.2649 75.2328 83.9238C75.3377 83.753 75.4096 83.6069 75.4552 83.4985C75.4896 83.4168 75.5037 83.3692 75.5084 83.3532C75.5107 83.3454 75.5108 83.3452 75.5099 83.3521C75.5519 83.0244 75.5509 82.7163 75.5099 82.2818C75.3324 81.2862 73.8047 78.8156 68.5422 78.8156C63.2709 78.8156 61.7469 81.2945 61.5737 82.2868ZM60.5854 82.1335C60.8542 80.5184 62.9296 77.8156 68.5422 77.8156C74.1549 77.8156 76.2303 80.5184 76.4991 82.1335C76.501 82.1449 76.5025 82.1563 76.5036 82.1678C76.5509 82.6599 76.5567 83.0507 76.5018 83.4791C76.4869 83.5954 76.4375 83.7424 76.377 83.8863C76.311 84.0432 76.2155 84.2345 76.0849 84.4471C75.8234 84.8729 75.4169 85.391 74.8149 85.8924C73.6032 86.9017 71.6332 87.8156 68.5422 87.8156C62.3767 87.8156 60.7029 84.6042 60.5814 83.4688C60.534 83.0252 60.5212 82.6707 60.5821 82.1568C60.583 82.149 60.5841 82.1413 60.5854 82.1335ZM67.6683 82.712C67.9203 82.7951 68.2261 82.8406 68.5422 82.8406C68.8584 82.8406 69.1642 82.7951 69.4161 82.712C69.1651 82.6457 68.8591 82.6093 68.5422 82.6093C68.2254 82.6093 67.9194 82.6457 67.6683 82.712ZM70.1045 81.8964C69.9965 81.8475 69.8865 81.808 69.7801 81.7759C69.4025 81.6619 68.9658 81.6093 68.5422 81.6093C68.1186 81.6093 67.6819 81.6619 67.3043 81.7759C67.1979 81.808 67.0879 81.8475 66.98 81.8963C66.8883 81.7859 66.75 81.7156 66.5952 81.7156C66.3191 81.7156 66.0952 81.9395 66.0952 82.2156C66.0952 82.5063 66.1877 82.7657 66.3439 82.9825C66.5832 83.3147 66.9532 83.5243 67.3235 83.6511C67.7009 83.7803 68.127 83.8406 68.5422 83.8406C68.9575 83.8406 69.3836 83.7803 69.761 83.6511C70.1313 83.5243 70.5013 83.3147 70.7406 82.9825C70.8968 82.7657 70.9893 82.5063 70.9893 82.2156C70.9893 81.9395 70.7654 81.7156 70.4893 81.7156C70.3345 81.7156 70.1962 81.7859 70.1045 81.8964Z" fill="#735A44"/>
<path d="M60.5411 14.8157C67.7933 16.4614 67.5409 11.3156 62.5409 8.81564C64.5409 5.81567 60.041 1.81565 56.041 3.8156C55.541 -0.184348 48.041 0.315591 46.041 3.8156C43.541 0.315603 36.0409 2.31565 37.5409 7.31565C32.0409 6.31565 31.541 9.81564 31.541 11.3156C31.541 12.8156 32.473 16.2819 38.0411 14.8157C41.7969 17.5864 44.3581 17.8598 50.541 13.8156C53.6659 16.2809 57.4163 17.1274 60.5411 14.8157Z" fill="#F3EDE7"/>
<path d="M38.0411 14.8157V18.8157C47.1144 23.7374 52.0078 23.1745 60.5411 18.8157V14.8157C57.4163 17.1274 53.6659 16.2809 50.541 13.8156C44.3581 17.8598 41.7969 17.5864 38.0411 14.8157Z" fill="white"/>
<path d="M38.0411 14.8157V18.8157C47.1144 23.7374 52.0078 23.1745 60.5411 18.8157V14.8157M38.0411 14.8157C32.473 16.2819 31.541 12.8156 31.541 11.3156C31.541 9.81564 32.0409 6.31565 37.5409 7.31565C36.0409 2.31565 43.541 0.315603 46.041 3.8156C48.041 0.315591 55.541 -0.184348 56.041 3.8156C60.041 1.81565 64.5409 5.81567 62.5409 8.81564C67.5409 11.3156 67.7933 16.4614 60.5411 14.8157M38.0411 14.8157C41.7969 17.5864 44.3581 17.8598 50.541 13.8156C53.6659 16.2809 57.4163 17.1274 60.5411 14.8157" stroke="#735A44" stroke-linecap="round" stroke-linejoin="round"/>
<path fill-rule="evenodd" clip-rule="evenodd" d="M21.541 71.3156L18.541 70.3156C9.54102 73.3156 8.02145 76.6663 5.54102 83.9319C8.89045 86.662 11.108 88.4053 14.041 88.8156L18.541 76.3156C24.2745 78.9569 24.9801 77.484 25.4648 76.4725C25.4906 76.4187 25.5158 76.3661 25.541 76.3156C25.9576 75.4824 25.7906 72.9076 21.541 71.3156Z" fill="#ADE493"/>
<path d="M14.041 68.8156C6.0231 71.5729 4.27312 74.8296 3.04102 81.8156C3.94842 82.6042 4.77437 83.307 5.54102 83.9319C8.02145 76.6663 9.54102 73.3156 18.541 70.3156L14.041 68.8156Z" fill="white"/>
<path d="M18.541 70.3156L14.041 68.8156C6.0231 71.5729 4.27312 74.8296 3.04102 81.8156C3.94842 82.6042 4.77437 83.307 5.54102 83.9319M18.541 70.3156L21.541 71.3156C25.7906 72.9076 25.9576 75.4824 25.541 76.3156C25.5158 76.3661 25.4906 76.4187 25.4648 76.4725C24.9801 77.484 24.2745 78.9569 18.541 76.3156L14.041 88.8156C11.108 88.4053 8.89045 86.662 5.54102 83.9319M18.541 70.3156C9.54102 73.3156 8.02145 76.6663 5.54102 83.9319" stroke="#735A44" stroke-linecap="round" stroke-linejoin="round"/>
<path fill-rule="evenodd" clip-rule="evenodd" d="M76.1941 71.3156L79.1941 70.3156C88.1941 73.3156 89.7137 76.6663 92.1941 83.9319C88.8447 86.662 86.6271 88.4053 83.6941 88.8156L79.1941 76.3156C73.4606 78.9569 72.755 77.484 72.2703 76.4725C72.2445 76.4187 72.2194 76.3661 72.1941 76.3156C71.7775 75.4824 71.9445 72.9076 76.1941 71.3156Z" fill="#ADE493"/>
<path d="M83.6941 68.8156C91.712 71.5729 93.462 74.8296 94.6941 81.8156C93.7867 82.6042 92.9607 83.307 92.1941 83.9319C89.7137 76.6663 88.1941 73.3156 79.1941 70.3156L83.6941 68.8156Z" fill="white"/>
<path d="M79.1941 70.3156L83.6941 68.8156C91.712 71.5729 93.462 74.8296 94.6941 81.8156C93.7867 82.6042 92.9607 83.307 92.1941 83.9319M79.1941 70.3156L76.1941 71.3156C71.9445 72.9076 71.7775 75.4824 72.1941 76.3156C72.2194 76.3661 72.2445 76.4187 72.2703 76.4725C72.755 77.484 73.4606 78.9569 79.1941 76.3156L83.6941 88.8156C86.6271 88.4053 88.8447 86.662 92.1941 83.9319M79.1941 70.3156C88.1941 73.3156 89.7137 76.6663 92.1941 83.9319" stroke="#735A44" stroke-linecap="round" stroke-linejoin="round"/>
</svg>
