<svg width="77" height="102" viewBox="0 0 77 102" fill="none" xmlns="http://www.w3.org/2000/svg">
<path d="M14.0067 22.6361C9.6129 29.8966 3.37918 30.4669 3.6156 32.6368C4.27185 33.7013 14.1445 34.0979 17.3551 29.5747C20.5656 25.0515 17.9095 16.1869 14.0067 22.6361Z" fill="#F5C870" stroke="#735A44" stroke-linecap="round" stroke-linejoin="round"/>
<path d="M7.29628 57.9204C14.1635 43.1514 19.1719 48.6409 19.8075 55.4772C20.1748 62.679 16.9122 69.1309 15.7418 69.9589C11.2235 73.9384 0.429107 72.6893 7.29628 57.9204Z" fill="#F5C870" stroke="#735A44" stroke-linecap="round" stroke-linejoin="round"/>
<path fill-rule="evenodd" clip-rule="evenodd" d="M14.129 68.0883C14.4443 67.0732 14.7429 66.1115 14.9895 65.2742C10.8763 63.0788 8.43218 62.1991 3.73017 61.4692L1.59808 70.3407C1.4297 71.1929 1.34781 72.7959 1.84951 73.8673C1.4861 78.9981 4.88153 80.5984 7.90936 80.3116C10.8409 80.0339 11.2289 78.5195 12.2553 74.5131C12.289 74.3816 12.3234 74.2474 12.3586 74.1104C12.8366 72.2499 13.5144 70.0675 14.129 68.0883Z" fill="#ADE493"/>
<path d="M15.7002 62.317C11.8779 59.7135 9.38626 58.8223 4.47623 58.0133L3.73017 61.4692C8.43218 62.1991 10.8763 63.0788 14.9895 65.2742C15.3754 63.9636 15.2756 64.0125 15.7002 62.317Z" fill="white"/>
<path d="M5.5174 71.6209C5.43498 72.7846 5.24185 75.5111 3.27511 74.9708C2.57983 74.7798 2.12387 74.4532 1.84951 73.8673M1.84951 73.8673C1.34781 72.7959 1.4297 71.1929 1.59808 70.3407L3.73017 61.4692M1.84951 73.8673C1.4861 78.9981 4.88153 80.5984 7.90936 80.3116C10.8409 80.0339 11.2289 78.5195 12.2553 74.5131C12.289 74.3816 12.3234 74.2474 12.3586 74.1104C12.8366 72.2499 13.5144 70.0675 14.129 68.0883C14.4443 67.0732 14.7429 66.1115 14.9895 65.2742M3.73017 61.4692L4.47623 58.0133C9.38626 58.8223 11.8779 59.7135 15.7002 62.317C15.2756 64.0125 15.3754 63.9636 14.9895 65.2742M3.73017 61.4692C8.43218 62.1991 10.8763 63.0788 14.9895 65.2742" stroke="#735A44" stroke-linecap="round" stroke-linejoin="round"/>
<path d="M56.3279 98.902L59.5487 85C53.3821 81.5 40.2883 84.5999 41.5488 89.5C43.1866 95.8669 41.7335 90.2183 43.0227 95.2296C43.1927 95.8904 43.1697 96.5918 42.9539 97.2391L42.689 98.0339C42.4356 98.7939 42.5713 99.6299 43.052 100.271C43.513 100.886 44.2367 101.247 45.0051 101.247L53.3769 101.247C54.7865 101.247 56.0098 100.275 56.3279 98.902Z" fill="#F5C870" stroke="#735A44"/>
<path d="M33.7845 98.3674L33.7845 85.5C27.6178 82 13.7884 75.5999 15.0488 80.5C16.6949 86.8992 19.2661 89.2554 21.0077 95.2371C21.1984 95.8922 21.1697 96.5918 20.9539 97.2391L20.689 98.0339C20.4356 98.7939 20.5712 99.6299 21.0519 100.271C21.513 100.886 22.2367 101.247 23.0051 101.247L30.9045 101.247C32.4951 101.247 33.7845 99.958 33.7845 98.3674Z" fill="#F5C870" stroke="#735A44"/>
<path fill-rule="evenodd" clip-rule="evenodd" d="M36.0752 3.50305C32.5766 3.6022 28.22 8.72745 34.1721 8.5589L34.6749 7.04406C43.3385 7.00467 47.7797 8.11599 54.8367 12.4755L54.1663 14.4953C55.9637 16.9455 61.3766 13.7909 56.7935 10.9195C56.901 7.40219 55.6382 5.45005 52.1538 6.04892C50.8695 3.06308 48.4853 0.150476 44.0579 2.77678C43.4731 -0.207788 37.9612 -0.551878 36.0752 3.50305Z" fill="#F3EDE7"/>
<path d="M54.8367 12.4755C47.7797 8.11599 43.3385 7.00467 34.6749 7.04406L34.1721 8.5589L32.8314 12.5985C42.092 12.2154 46.549 13.3318 52.9932 18.0299L54.1663 14.4953L54.8367 12.4755Z" fill="white"/>
<path d="M34.1721 8.5589L32.8314 12.5985C42.092 12.2154 46.549 13.3318 52.9932 18.0299L54.1663 14.4953M34.1721 8.5589L34.6749 7.04406C43.3385 7.00467 47.7797 8.11599 54.8367 12.4755L54.1663 14.4953M34.1721 8.5589C28.22 8.72745 32.5766 3.6022 36.0752 3.50305C37.9612 -0.551878 43.4731 -0.207788 44.0579 2.77678C48.4853 0.150476 50.8695 3.06308 52.1538 6.04892C55.6382 5.45005 56.901 7.40219 56.7935 10.9195C61.3766 13.7909 55.9637 16.9455 54.1663 14.4953" stroke="#735A44" stroke-linecap="round" stroke-linejoin="round"/>
<path d="M54.0488 16C38.7152 5.45822 22.4488 13 18.0488 18C7.04878 30.5 12.5488 41.5 11.5488 50C10.8262 56.1423 9.36128 59 9.04878 66.5C8.04878 90.5 31.5488 90 40.0488 90.5C48.5488 91 69.0488 87 69.0488 69C69.0488 54.6 66.3822 41 64.5488 35.5C61.8822 27.5001 62.0488 21.5 54.0488 16Z" fill="#FAE1A1" stroke="#735A44" stroke-linecap="round" stroke-linejoin="round"/>
<path d="M59.5046 20.7526C66.276 29.4584 75.616 30.4171 75.322 32.9466C74.3696 34.1623 59.6131 34.1657 54.6866 28.72C49.7601 23.2743 53.4898 13.0196 59.5046 20.7526Z" fill="#F5C870" stroke="#735A44" stroke-linecap="round" stroke-linejoin="round"/>
<path d="M67.675 56.9361C59.3516 42.9361 54.9231 48.9033 54.981 55.7688C55.3428 62.9708 59.2402 69.0603 60.4883 69.7659C65.3853 73.2688 75.9984 70.9361 67.675 56.9361Z" fill="#F5C870" stroke="#735A44" stroke-linecap="round" stroke-linejoin="round"/>
<path d="M49.5488 68.3032C54.0487 81.8032 40.5488 89 30.0488 87.8032C19.0488 86.5495 9.11823 83.3032 12.8682 68.3032C15.3682 58.3032 19.2793 48.8032 30.0488 48.8032C40.8183 48.8032 46.5488 59.3032 49.5488 68.3032ZM24.0488 69.8032C24.0488 72.962 26.89 74.0227 30.0488 74.0227C33.2075 74.0227 36.0488 72.962 36.0488 69.8032C36.0488 66.6444 33.2075 62.5837 30.0488 62.5837C26.89 62.5837 24.0488 66.6444 24.0488 69.8032Z" fill="#FFFDCE"/>
<path d="M68.0488 65.5C33.0389 68.8849 17.3615 68.7084 8.54883 65L10.5488 89.5C22.3741 92.6906 31.0202 94.0615 51.0488 91C51.0232 84.6569 51.0027 81.4561 51.0488 70.5C55.6373 70.1482 59.7781 69.6224 68.0488 68.5V65.5Z" fill="#A0846A" stroke="#735A44" stroke-linecap="round" stroke-linejoin="round"/>
<path fill-rule="evenodd" clip-rule="evenodd" d="M67.9086 83.1578C75.1142 82.3934 73.629 69.9832 71.3289 61.1743C65.3677 62.1645 61.9861 63.5272 55.8959 67.0854L57.0374 70.7354C53.4593 79.6627 59.8682 79.0446 61.7008 76.7771C61.799 76.6556 61.8413 76.9328 61.9174 77.4311C62.1855 79.1877 62.8731 83.692 67.9086 83.1578Z" fill="#ADE493"/>
<path d="M70.1905 57.2727C63.4595 58.5707 60.1115 59.9683 54.7545 63.4355L55.8959 67.0854C61.9861 63.5272 65.3677 62.1645 71.3289 61.1743C70.9596 59.7599 70.5692 58.4383 70.1905 57.2727Z" fill="white"/>
<path d="M55.8959 67.0854L54.7545 63.4355C60.1115 59.9683 63.4595 58.5707 70.1905 57.2727C70.5692 58.4383 70.9596 59.7599 71.3289 61.1743M55.8959 67.0854L57.0374 70.7354C53.4593 79.6627 59.8682 79.0446 61.7008 76.7771C61.799 76.6556 61.8413 76.9328 61.9174 77.4311C62.1855 79.1877 62.8731 83.692 67.9086 83.1578C75.1142 82.3934 73.629 69.9832 71.3289 61.1743M55.8959 67.0854C61.9861 63.5272 65.3677 62.1645 71.3289 61.1743" stroke="#735A44" stroke-linecap="round" stroke-linejoin="round"/>
<path d="M43.1035 24.8033C42.6035 21.3033 37.4207 21.4182 37.1035 23.3033C36.7015 25.6927 38.5998 26.4611 40.0017 26.5717C41.578 26.696 43.3271 26.3686 43.1035 24.8033Z" fill="#FFFDCE" stroke="#735A44"/>
<path d="M23.0648 24.44C23.4764 21.3936 27.7427 21.4936 28.0038 23.1344C28.3347 25.2141 26.7721 25.883 25.6181 25.9792C24.3206 26.0874 22.8807 25.8024 23.0648 24.44Z" fill="#FFFDCE" stroke="#735A44"/>
<path d="M33.0488 37C33.4687 36.3702 32.3821 36 31.5488 36C30.5487 36 29.6397 36.3862 30.0488 37C31.0486 38.5001 32.0488 38.5 33.0488 37Z" fill="#A38067" stroke="#735A44"/>
<path d="M31.5488 38.5V39.5M31.5488 39.5C31.5488 41 28.0488 41 28.0488 39M31.5488 39.5C31.5488 41 35.5488 41 35.5488 39" stroke="#735A44" stroke-linecap="round" stroke-linejoin="round"/>
<path d="M37.0488 33.5C37.5488 31.5 40.5488 30.5 41.0488 34" stroke="#735A44" stroke-linecap="round" stroke-linejoin="round"/>
<path d="M27.1653 33.083C26.9051 30.8192 23.8367 30.6687 23.6572 33.4862" stroke="#735A44" stroke-linecap="round" stroke-linejoin="round"/>
</svg>
