<svg width="146" height="104" viewBox="0 0 146 104" fill="none" xmlns="http://www.w3.org/2000/svg">
<path d="M82.8727 22.5482C78.7018 29.939 72.4883 30.6985 72.7906 32.8602C73.4789 33.9043 83.359 34.0004 86.4306 29.3817C89.5021 24.763 86.5776 15.9832 82.8727 22.5482Z" fill="#F5C870" stroke="#735A44" stroke-linecap="round" stroke-linejoin="round"/>
<path d="M129.553 99.2066L128.549 86C122.382 82.5 106.27 87.0811 110 90.5C115.508 95.5487 112.168 92.5924 116.057 96.1322C116.799 96.8075 117.08 97.8617 116.763 98.8133L116.689 99.0339C116.436 99.7939 116.571 100.63 117.052 101.271C117.513 101.886 118.237 102.247 119.005 102.247L126.735 102.247C128.38 102.247 129.678 100.847 129.553 99.2066Z" fill="#F5C870" stroke="#735A44"/>
<path d="M102.785 99.3674L102.785 86.5C96.6179 83 82.7884 76.5999 84.0489 81.5C85.695 87.8992 88.2661 90.2554 90.0078 96.2371C90.1985 96.8922 90.1698 97.5918 89.954 98.2391L89.689 99.0339C89.4356 99.7939 89.5713 100.63 90.052 101.271C90.5131 101.886 91.2367 102.247 92.0052 102.247L99.9045 102.247C101.495 102.247 102.785 100.958 102.785 99.3674Z" fill="#F5C870" stroke="#735A44"/>
<path fill-rule="evenodd" clip-rule="evenodd" d="M105.075 3.50305C101.577 3.6022 97.22 8.72745 103.172 8.5589L103.675 7.04406C112.339 7.00467 116.78 8.11599 123.837 12.4755L123.166 14.4953C124.964 16.9455 130.377 13.7909 125.794 10.9195C125.901 7.40219 124.638 5.45005 121.154 6.04892C119.87 3.06308 117.485 0.150476 113.058 2.77678C112.473 -0.207788 106.961 -0.551878 105.075 3.50305Z" fill="#F3EDE7"/>
<path d="M123.837 12.4755C116.78 8.11599 112.339 7.00467 103.675 7.04406L103.172 8.5589L101.831 12.5985C111.092 12.2154 115.549 13.3318 121.993 18.0299L123.166 14.4953L123.837 12.4755Z" fill="white"/>
<path d="M103.172 8.5589L101.831 12.5985C111.092 12.2154 115.549 13.3318 121.993 18.0299L123.166 14.4953M103.172 8.5589L103.675 7.04406C112.339 7.00467 116.78 8.11599 123.837 12.4755L123.166 14.4953M103.172 8.5589C97.22 8.72745 101.577 3.6022 105.075 3.50305C106.961 -0.551878 112.473 -0.207788 113.058 2.77678C117.485 0.150476 119.87 3.06308 121.154 6.04892C124.638 5.45005 125.901 7.40219 125.794 10.9195C130.377 13.7909 124.964 16.9455 123.166 14.4953" stroke="#735A44" stroke-linecap="round" stroke-linejoin="round"/>
<path d="M63.0001 53L81.0001 44V58L59.5 62L57.5 54C57.5 54 58.0002 54.5 57.5001 52.5C56.9999 50.5 59.5 48 61.0001 51C62.5002 54 63.0001 53 63.0001 53Z" fill="#F5C870" stroke="#735A44" stroke-linecap="round" stroke-linejoin="round"/>
<path d="M123.049 16C107.715 5.45822 91.4489 13 87.0489 18C76.0488 30.5 81.5489 41.5 80.5489 50C79.8263 56.1423 78.3613 59 78.0488 66.5C77.0488 90.5 100.549 90 109.049 90.5C117.549 91 138.049 87 138.049 69C138.049 54.6 135.382 41 133.549 35.5C130.882 27.5001 131.049 21.5 123.049 16Z" fill="#FAE1A1" stroke="#735A44" stroke-linecap="round" stroke-linejoin="round"/>
<path d="M128.435 20.8135C135.322 29.4285 144.674 30.2631 144.413 32.7962C143.477 34.0245 128.722 34.2239 123.724 28.8442C118.725 23.4645 122.318 13.1611 128.435 20.8135Z" fill="#F5C870" stroke="#735A44" stroke-linecap="round" stroke-linejoin="round"/>
<path d="M118.549 68.3032C123.049 81.8032 109.549 89 99.0488 87.8032C88.0489 86.5495 78.1183 83.3032 81.8683 68.3032C84.3683 58.3032 88.2793 48.8032 99.0488 48.8032C109.818 48.8032 115.549 59.3032 118.549 68.3032ZM93.0488 69.8032C93.0488 72.962 95.89 74.0227 99.0488 74.0227C102.208 74.0227 105.049 72.962 105.049 69.8032C105.049 66.6444 102.208 62.5837 99.0488 62.5837C95.89 62.5837 93.0488 66.6444 93.0488 69.8032Z" fill="#FFFDCE"/>
<path d="M137.049 65.5C102.039 68.8849 86.3616 68.7084 77.5489 65L79.5489 89.5C91.3741 92.6906 100.02 94.0615 120.049 91C120.023 84.6569 120.003 81.4561 120.049 70.5C124.637 70.1482 128.778 69.6224 137.049 68.5V65.5Z" fill="#A0846A" stroke="#735A44" stroke-linecap="round" stroke-linejoin="round"/>
<path d="M112.055 24.8033C111.555 21.3033 106.372 21.4182 106.055 23.3033C105.653 25.6927 107.551 26.4611 108.953 26.5717C110.529 26.696 112.278 26.3686 112.055 24.8033Z" fill="#FFFDCE" stroke="#735A44"/>
<path d="M92.016 29.44C92.4276 26.3936 96.6939 26.4936 96.955 28.1344C97.2859 30.2141 95.7233 30.883 94.5693 30.9792C93.2717 31.0874 91.8319 30.8024 92.016 29.44Z" fill="#FFFDCE" stroke="#735A44"/>
<path d="M102.049 37C102.469 36.3702 101.382 36 100.549 36C99.5488 36 98.6397 36.3862 99.0488 37C100.049 38.5001 101.049 38.5 102.049 37Z" fill="#A38067" stroke="#735A44"/>
<path d="M102.5 39.3L105.5 38.5C108 41.5 105 43 102.5 39.3Z" fill="#FCB5B5"/>
<path d="M97.8712 40.0169C97.6044 40.088 97.4458 40.362 97.5169 40.6288C97.5881 40.8956 97.8621 41.0543 98.1289 40.9831L97.8712 40.0169ZM100.962 38.3077L100.769 37.8462L99.8462 38.2308L100.039 38.6923L100.962 38.3077ZM105.5 38.5L105.884 38.1799C105.76 38.0303 105.559 37.9667 105.371 38.0169L105.5 38.5ZM98.1289 40.9831L101.129 40.1831L100.871 39.2169L97.8712 40.0169L98.1289 40.9831ZM101.462 39.5077L100.962 38.3077L100.039 38.6923L100.539 39.8923L101.462 39.5077ZM101.129 40.1831L102.629 39.7831L102.371 38.8169L100.871 39.2169L101.129 40.1831ZM102.629 39.7831L105.629 38.9831L105.371 38.0169L102.371 38.8169L102.629 39.7831ZM102.086 39.5799C102.743 40.5534 103.454 41.2145 104.131 41.594C104.795 41.9665 105.488 42.0964 106.054 41.8794C106.669 41.6436 106.979 41.0616 106.937 40.38C106.896 39.7283 106.545 38.9732 105.884 38.1799L105.116 38.8201C105.705 39.5268 105.916 40.0842 105.938 40.4418C105.959 40.7697 105.831 40.8939 105.696 40.9456C105.512 41.0161 105.142 41.0147 104.62 40.7217C104.109 40.4355 103.507 39.8966 102.914 39.0201L102.086 39.5799Z" fill="#735A44"/>
<path d="M96.0001 33L92.0001 34" stroke="#735A44" stroke-linecap="round"/>
<path d="M108 33V31" stroke="#735A44" stroke-width="2" stroke-linecap="round"/>
<path d="M59.4723 70.7068L60.4527 70.51L56.0491 44.3653L54.2567 44.7251L59.4723 70.7068Z" fill="#DBC498"/>
<path d="M55.1351 38.9391L53.1742 39.3327L54.2567 44.7251L56.0491 44.3653L55.1351 38.9391Z" fill="#D9D9D9"/>
<path d="M53.1742 39.3327L55.1351 38.9391L55.1315 33.8401L51.2097 34.6273L53.1742 39.3327Z" fill="#FCF3E0"/>
<path d="M53.1742 39.3327L55.1351 38.9391M53.1742 39.3327L54.2567 44.7251M53.1742 39.3327L51.2097 34.6273L55.1315 33.8401L55.1351 38.9391M55.1351 38.9391L56.0491 44.3653M54.2567 44.7251L59.4723 70.7068L60.4527 70.51L56.0491 44.3653M54.2567 44.7251L56.0491 44.3653" stroke="#735A44"/>
<path d="M60.2588 57.111C60.5882 58.7104 60.6334 59.9933 60.4054 60.8968C60.1853 61.7685 59.7313 62.24 59.0299 62.3845C57.51 62.6975 55.1183 61.3655 54.4869 58.2996C54.1562 56.6938 54.1452 55.5782 54.3864 54.843C54.5033 54.4864 54.6772 54.2265 54.9002 54.036C55.1251 53.8439 55.4256 53.7004 55.8273 53.6176C56.6362 53.4511 57.5888 53.5865 58.4122 54.123C59.2272 54.6539 59.9474 55.5991 60.2588 57.111Z" fill="#F5C870" stroke="#735A44"/>
<path d="M103.976 71.959C103.598 72.0062 104.362 72.8619 104.429 72.954C105.021 73.7669 105.81 74.6734 106.612 75.2865C106.953 75.5468 107.235 75.9388 107.668 75.9388C108.138 75.9388 108.719 76.0302 109.171 75.8946C109.99 75.6489 109.904 73.4117 109.691 72.7108C109.362 71.6309 109 70.8646 107.668 70.8646C106.825 70.8646 106.01 71.0636 105.164 71.0636C104.783 71.0636 104.41 71.2414 104.108 71.4616C103.719 71.7463 103.777 72.2331 103.777 72.6776C103.777 73.5337 103.846 73.7958 104.772 73.7444C105.117 73.7252 105.916 73.5915 106.159 73.3077C106.276 73.1715 106.797 73.2525 106.961 73.2525C107.619 73.2525 107.858 73.4124 108 74.0595C108.102 74.5256 108.124 74.7981 107.756 75.0433" stroke="#B2E395" stroke-width="3" stroke-linecap="round"/>
<path d="M101.09 79.5206C100.762 79.5616 101.225 80.0321 101.289 80.1175" stroke="#E0B1F5" stroke-width="3" stroke-linecap="round"/>
<path d="M83.0822 72.8546C82.7706 72.892 82.7478 73.044 82.6235 73.3023C82.3627 73.8439 81.9339 74.3124 81.6451 74.8444C81.242 75.587 81.0924 76.2476 81.0924 77.083C81.0924 77.6104 80.9983 78.2446 81.0924 78.7689C81.2263 79.5153 82.6198 79.8191 83.2315 79.8191C83.9644 79.8191 84.3843 79.4819 84.9947 79.1669C85.6109 78.8488 86.266 79.2468 86.266 78.3709C86.266 76.9261 86.2526 75.5766 86.0173 74.1646C85.8737 73.3033 86.6243 72.9441 86.5645 72.136C86.53 71.6703 85.8588 71.6606 85.5088 71.6606C84.5032 71.6606 84.0359 72.4072 83.6239 73.2194C83.4345 73.5928 83.2909 73.9972 83.2315 74.4133C83.1481 74.9965 83.2768 75.6311 83.0822 76.1931C83.0085 76.406 82.4398 77.0333 82.5627 77.0333C82.8778 77.0333 83.2338 77.0778 83.5355 76.9669C83.7704 76.8806 83.8429 76.6939 84.0772 76.6353" stroke="#B2C3FF" stroke-width="3" stroke-linecap="round"/>
<path d="M115.119 81.4109C115.297 81.522 115.705 82.2185 115.716 82.4059C115.743 82.87 114.809 82.9583 114.483 83.0084C114.335 83.0311 113.944 83.4065 113.931 83.3345C113.889 83.1032 114.079 82.7493 114.224 82.6049" stroke="#FFA8A2" stroke-width="3" stroke-linecap="round"/>
<path d="M134.364 70.3371C148.786 58.4727 146.217 52.8254 131.994 44.352C131.994 44.352 127.253 40.9626 123.934 44.9169C120.615 48.8712 126.853 56.1695 131.519 57.9095C127.646 60.3559 122.148 69.0074 127.727 73.1616C133.305 77.3158 137.666 73.5766 134.364 70.3371Z" fill="#F5C870" stroke="#735A44" stroke-linecap="round" stroke-linejoin="round"/>
<path d="M5 11.5H37.0514L39.0169 68.5H5V11.5Z" fill="white" stroke="#735A44"/>
<rect x="3.5" y="68.5" width="38" height="3" fill="#DDA775" stroke="#735A44"/>
<path d="M25.0713 25.5H28.0652L38.9251 103H35.4376L25.0713 25.5Z" fill="#E0BD9D" stroke="#735A44"/>
<path d="M5.06416 103L14.4431 25.5H17.4394L8.55405 103H5.06416Z" fill="#E0BD9D" stroke="#735A44"/>
<rect x="9.5" y="78.5" width="25" height="3" fill="#DDA775" stroke="#735A44"/>
<path d="M19.9901 78.5L18.5101 4.5H21.5099L22.9899 78.5H19.9901Z" fill="#E0BD9D" stroke="#735A44"/>
<rect x="12.5" y="21.5" width="17" height="4" fill="#DDA775" stroke="#735A44"/>
<path d="M0.617186 103L17.9051 21.5H21.3828L4.09494 103H0.617186Z" fill="#E0BD9D" stroke="#735A44"/>
</svg>
