<svg width="93" height="92" viewBox="0 0 93 92" fill="none" xmlns="http://www.w3.org/2000/svg">
<path d="M42.2543 88.5129L41.9037 81.5C35.737 78 23.8487 72.3765 25.9037 77C27.6079 80.8345 28.586 83.2168 29.4567 85.3843C29.7461 86.1045 29.769 86.9041 29.5235 87.6404L29.3081 88.2864C29.0548 89.0465 29.1904 89.8825 29.6711 90.5234C30.1322 91.1382 30.8558 91.5 31.6243 91.5L39.4128 91.5C41.0399 91.5 42.3356 90.1379 42.2543 88.5129Z" fill="#F5C870" stroke="#735A44"/>
<path d="M50.5528 88.2604L50.9034 81.2475C57.0701 77.7475 68.9584 72.124 66.9035 76.7475C65.1993 80.582 64.2211 82.9643 63.3504 85.1318C63.0611 85.852 63.0382 86.6516 63.2836 87.3879L63.499 88.0339C63.7524 88.794 63.6167 89.63 63.136 90.2709C62.6749 90.8857 61.9513 91.2475 61.1828 91.2475L53.3943 91.2475C51.7672 91.2475 50.4716 89.8854 50.5528 88.2604Z" fill="#F5C870" stroke="#735A44"/>
<path d="M20.4035 37C14.9035 41 3.50356 56.4 9.90356 62C16.3036 67.6 20.4035 47.3333 20.4035 37Z" fill="#F5C870" stroke="#735A44" stroke-linejoin="bevel"/>
<path d="M72.4036 37C77.9036 41 89.3036 56.4 82.9036 62C76.5036 67.6 72.4036 47.3333 72.4036 37Z" fill="#F5C870" stroke="#735A44" stroke-linejoin="bevel"/>
<path d="M3.90353 18.5C11.5035 16.5 21.7369 11.6667 25.9035 9.5C25.9035 10.3333 25.2035 13 22.4036 17C19.6036 21 13.6397 22.7487 10.9035 22.5C5.40353 22 -3.69647 20.5 3.90353 18.5Z" fill="#F5C870" stroke="#735A44" stroke-linejoin="bevel"/>
<path d="M89 18.5C81.4 16.5 71.1667 11.6667 67 9.5C67 10.3333 67.7 13 70.5 17C73.3 21 79.2639 22.7487 82 22.5C87.5 22 96.6 20.5 89 18.5Z" fill="#F5C870" stroke="#735A44" stroke-linejoin="bevel"/>
<path fill-rule="evenodd" clip-rule="evenodd" d="M47.0205 1C44.4636 1.00001 38.5673 1.5117 32.9618 4.15606C27.3219 6.81672 21.9103 11.6791 20.6127 20.3502C19.843 25.4943 19.9958 29.101 20.1337 32.3546C20.1451 32.6223 20.1563 32.8876 20.1669 33.1512C20.3053 36.5857 20.34 39.7388 19.1537 44.2423C18.1633 48.0023 17.034 52.6939 16.5937 57.4058C16.155 62.1017 16.3879 66.9365 18.2252 70.9229L18.2604 70.9921C19.4814 73.1792 22.7299 75.9175 27.5433 78.1002C32.4045 80.3044 38.9823 82 47.0205 82C64.053 82 72.182 75.2279 74.5467 70.9921L74.5819 70.9229C76.4192 66.9365 76.6521 62.1017 76.2134 57.4058C75.7732 52.6939 74.6438 48.0023 73.6534 44.2423C72.4671 39.7388 72.5018 36.5857 72.6402 33.1512C72.6508 32.8876 72.6621 32.6223 72.6734 32.3546C72.8113 29.101 72.9642 25.4943 72.1944 20.3502C70.9014 11.7093 65.829 6.83995 60.4826 4.16592C55.1777 1.5127 49.581 1.00001 47.0205 1Z" fill="#FAE1A1" stroke="#735A44" stroke-linejoin="bevel"/>
<path d="M47.4036 29C47.8234 28.3702 46.7368 28 45.9035 28C44.9035 28 43.9944 28.3862 44.4035 29C45.4033 30.5001 46.4036 30.5 47.4036 29Z" fill="#A38067" stroke="#735A44"/>
<path d="M45.9036 30.5V31.5M45.9036 31.5C45.9036 34 41.9036 34 41.9036 31M45.9036 31.5C45.9036 34 49.9036 34 49.9036 31" stroke="#735A44" stroke-linecap="round" stroke-linejoin="round"/>
<path d="M52.4036 23V25" stroke="#735A44" stroke-width="2" stroke-linecap="round"/>
<path d="M35.9036 17.5C36.4036 14 41.5864 14.1149 41.9036 16C42.3055 18.3894 40.4073 19.1578 39.0053 19.2684C37.4291 19.3927 35.68 19.0652 35.9036 17.5Z" fill="#FFFDCE" stroke="#735A44"/>
<path d="M55.9388 17.5C55.4388 14 50.256 14.1149 49.9388 16C49.5369 18.3894 51.4351 19.1578 52.8371 19.2684C54.4133 19.3927 56.1625 19.0652 55.9388 17.5Z" fill="#FFFDCE" stroke="#735A44"/>
<path d="M39.4036 23V25" stroke="#735A44" stroke-width="2" stroke-linecap="round"/>
<path d="M65.4036 58.5C69.9036 72 56.6731 78 45.9036 78C35.134 78 22.6536 73.5 26.4036 58.5C28.9036 48.5 35.134 39 45.9036 39C56.6731 39 62.4036 49.5 65.4036 58.5ZM39.9036 60C39.9036 63.1588 42.7448 64.2195 45.9036 64.2195C49.0623 64.2195 51.9036 63.1588 51.9036 60C51.9036 56.8412 49.0623 52.7805 45.9036 52.7805C42.7448 52.7805 39.9036 56.8412 39.9036 60Z" fill="#FFFDCE"/>
</svg>
