<svg width="630" height="634" viewBox="0 0 630 634" fill="none" xmlns="http://www.w3.org/2000/svg">
<g filter="url(#filter0_d_101_18)">
<path d="M392.883 295.553L384.217 281.317C378.607 284.733 375.527 291.123 376.35 297.64C377.17 304.153 381.74 309.58 388.023 311.497L392.883 295.553ZM237.113 295.553L241.974 311.497C248.256 309.58 252.827 304.153 253.65 297.64C254.47 291.123 251.39 284.733 245.78 281.317L237.113 295.553ZM448.333 167.333C448.333 215.6 422.697 257.893 384.217 281.317L401.55 309.79C449.55 280.57 481.667 227.71 481.667 167.333H448.333ZM315 34.0001C388.637 34.0001 448.333 93.6954 448.333 167.333H481.667C481.667 75.2861 407.047 0.666748 315 0.666748V34.0001ZM181.665 167.333C181.665 93.6954 241.361 34.0001 315 34.0001V0.666748C222.951 0.666748 148.332 75.2861 148.332 167.333H181.665ZM245.78 281.317C207.301 257.893 181.665 215.6 181.665 167.333H148.332C148.332 227.71 180.447 280.57 228.447 309.79L245.78 281.317ZM232.253 279.61C127.028 311.697 47.7854 403.347 33.8481 515.34L66.9261 519.457C79.2127 420.727 149.127 339.807 241.974 311.497L232.253 279.61ZM33.8481 515.34C30.1644 544.94 54.6851 567.333 81.6654 567.333V534C71.8271 534 66.0627 526.397 66.9261 519.457L33.8481 515.34ZM81.6654 567.333H548.333V534H81.6654V567.333ZM548.333 567.333C575.313 567.333 599.833 544.94 596.15 515.34L563.07 519.457C563.933 526.397 558.17 534 548.333 534V567.333ZM596.15 515.34C582.213 403.347 502.97 311.697 397.743 279.61L388.023 311.497C480.87 339.807 550.783 420.727 563.07 519.457L596.15 515.34Z" fill="#F8FAEC"/>
</g>
<defs>
<filter id="filter0_d_101_18" x="0.146404" y="0.666748" width="629.705" height="633.333" filterUnits="userSpaceOnUse" color-interpolation-filters="sRGB">
<feFlood flood-opacity="0" result="BackgroundImageFix"/>
<feColorMatrix in="SourceAlpha" type="matrix" values="0 0 0 0 0 0 0 0 0 0 0 0 0 0 0 0 0 0 127 0" result="hardAlpha"/>
<feOffset dy="33.3333"/>
<feGaussianBlur stdDeviation="16.6667"/>
<feColorMatrix type="matrix" values="0 0 0 0 0 0 0 0 0 0 0 0 0 0 0 0 0 0 0.1 0"/>
<feBlend mode="normal" in2="BackgroundImageFix" result="effect1_dropShadow_101_18"/>
<feBlend mode="normal" in="SourceGraphic" in2="effect1_dropShadow_101_18" result="shape"/>
</filter>
</defs>
</svg>
